<svg id="Layer_1" data-name="Layer 1" xmlns="http://www.w3.org/2000/svg" viewBox="0 0 187.78 73.1"><defs><style>.cls-1{fill:#1d1d1b;}</style></defs><path class="cls-1" d="M84.37,122.37a24.19,24.19,0,0,1,24.2,24.17v24.17a24.18,24.18,0,0,1-24.2-24.17V123.38h-3v47.33H57.14V98.21H96.49a12.08,12.08,0,0,1,0,24.16Zm0-1V100.22h-3v21.15Z" transform="translate(-57.14 -97.91)"/><path class="cls-1" d="M163.08,110.29v60.42H138.91V123.38h-3v47.33H111.73V110.29a12.08,12.08,0,1,1,24.16,0v11.08h3V110.29a12.09,12.09,0,0,1,24.17,0Z" transform="translate(-57.14 -97.91)"/><path class="cls-1" d="M244.92,122.67,244.61,171l-24.16-.16.15-24.17.14-23.15-3,.15-.19,23.16L217.44,171l-24.18-.33.31-48.33a24.17,24.17,0,0,1,24.32-24l3,0A24.17,24.17,0,0,1,244.92,122.67Zm-24-22.3-3,0-.1,21.14,3,0Z" transform="translate(-57.14 -97.91)"/><path class="cls-1" d="M190.52,110.24l-.39,60.42L166,170.5l.31-47.32-3,0-.31,47.32-24.16-.15.38-60.42a12.09,12.09,0,0,1,24.17.16l-.07,11.08h3l.07-11.07a12.09,12.09,0,1,1,24.17.15Z" transform="translate(-57.14 -97.91)"/></svg>