<?xml version="1.0" encoding="utf-8"?>
<!-- Generator: Adobe Illustrator 26.0.2, SVG Export Plug-In . SVG Version: 6.00 Build 0)  -->
<svg version="1.1" id="Layer_1" xmlns="http://www.w3.org/2000/svg" xmlns:xlink="http://www.w3.org/1999/xlink" x="0px" y="0px"
	 viewBox="0 0 600 600" style="enable-background:new 0 0 600 600;" xml:space="preserve">
<style type="text/css">
	.st0{fill:none;stroke:#C99B8A;stroke-width:2;}
	.st1{fill:none;stroke:#CFA594;stroke-width:2;}
	.st2{fill:none;stroke:#9B4728;stroke-width:2;}
	.st3{fill:#953D1E;}
	.st4{fill:#FDF9F6;}
	.st5{fill:#A15031;}
	.st6{fill:#A15031;stroke:#CFA594;}
</style>
<path vector-effect="non-scaling-stroke" class="st0" d="M105.8,339c5.5,27.2,16.2,51.4,32,74c2.8,4,6.2,8.3,10.1,12.9
	c4.7,5.5,8.3,9.5,11,12.2c49.8,49.7,118.9,69,187.9,53.5c31.9-7.1,60.7-22.1,86.3-44.9"/>
<path vector-effect="non-scaling-stroke" class="st1" d="M433,446.8c43.8-39.3,67.5-93.6,65.9-152.6c-1.5-52.7-25.5-104-64.9-139
	c-5.3-4.7-13.2-11.3-19.7-15.8c-33.2-22.9-69.9-34.7-110-35.5c-44.1-0.8-88.3,12.9-123.6,39.8c-17.3,13.2-31.9,28.2-43.7,45
	c-20.7,29.4-33.4,66-34.7,102.5c-0.6,16.2,0.4,31.8,3.5,47.8"/>
<path vector-effect="non-scaling-stroke" class="st2" d="M433,446.8l0.3-3.5c0.1-0.8-0.8-1.3-1.4-0.8c-1.5,1.2-3.4,1.6-5.5,1.4"/>
<path vector-effect="non-scaling-stroke" class="st1" d="M426.5,443.9c6.8-5.8,12.6-11.5,17.4-16.8c22.9-25.7,39.7-58.5,45.6-92.7
	c5.8-33.1,3.1-65.6-7.9-97.7c-0.9-2.7-1.9-5.3-3-7.9c-25.1-58.2-74.1-99.9-135.7-113.7c-39.9-9-82.3-5-119.3,11.1
	c-75.8,33.1-121.5,109.4-114.4,192.2c0.2,2.2,0.5,4.9,1.1,7.9c0.4,2.6,0.9,5.2,1.3,7.8"/>
<path vector-effect="non-scaling-stroke" class="st2" d="M111.5,334.2c-1.2,0.9-2.1,1.9-2.7,3c-0.1,0.2-0.1,0.4,0.1,0.5
	c0.6,0.7,0.7,1.5,0.3,2.4c-0.2,0.3-0.2,0.3-0.2-0.1l0-1c0-0.3-0.2-0.5-0.5-0.7c-1.1-0.4-2.1-0.2-2.8,0.6"/>
<path vector-effect="non-scaling-stroke" class="st0" d="M426.5,443.9c-7.4,6-15.1,12.2-22.9,17c-38.7,23.8-80.9,33.2-126.4,28.1
	c-43.5-4.9-84.7-25.6-114.9-56.6c-11.2-11.4-21.4-25-30.5-40.8c-1.5-2.5-2.7-6-4.6-8.9c-0.7-1.1-0.8-2-1.3-3.2
	c-6.6-14.6-11.3-29.7-14.3-45.4"/>
<path vector-effect="non-scaling-stroke" class="st0" d="M301.1,114.8c-0.3-0.3-0.8-0.3-1.1,0l-3.5,3.4c-0.3,0.3-0.3,0.8,0,1.1
	l3.4,3.4c0.3,0.3,0.8,0.3,1.1,0l3.5-3.4c0.3-0.3,0.3-0.8,0-1.1L301.1,114.8"/>
<path vector-effect="non-scaling-stroke" class="st1" d="M288.3,119.8c0.4-0.4,0.3-1.1-0.1-1.5l-3.2-2.8c-0.4-0.4-1.1-0.3-1.5,0.1
	l-2.9,3.3c-0.4,0.4-0.3,1.1,0.1,1.5l3.2,2.8c0.4,0.4,1.1,0.3,1.5-0.1L288.3,119.8"/>
<path vector-effect="non-scaling-stroke" class="st0" d="M317.3,115.5c-0.3-0.3-0.7-0.3-1-0.1l-3.7,3.2c-0.3,0.3-0.3,0.7-0.1,1
	l3.1,3.7c0.3,0.3,0.7,0.3,1,0.1l3.7-3.2c0.3-0.3,0.3-0.7,0.1-1L317.3,115.5"/>
<path vector-effect="non-scaling-stroke" class="st1" d="M272.5,121.2c0.2-0.3,0.1-0.7-0.2-0.9l-4.1-2.7c-0.3-0.2-0.7-0.1-0.9,0.2
	l-2.7,4.1c-0.2,0.3-0.1,0.7,0.2,0.9l4.1,2.7c0.3,0.2,0.7,0.1,0.9-0.2L272.5,121.2"/>
<path vector-effect="non-scaling-stroke" class="st0" d="M333.8,117.9c-0.3-0.5-0.9-0.6-1.4-0.3l-3.5,2.4c-0.5,0.3-0.6,0.9-0.3,1.4
	l2.4,3.6c0.3,0.5,0.9,0.6,1.4,0.3l3.5-2.4c0.5-0.3,0.6-0.9,0.3-1.4L333.8,117.9"/>
<path vector-effect="non-scaling-stroke" class="st1" d="M253.2,128.6c0.5,0.3,1.2,0.1,1.5-0.4l2.1-3.6c0.3-0.5,0.1-1.2-0.5-1.5
	l-3.8-1.9c-0.5-0.3-1.2-0.1-1.5,0.4l-1.9,3.5c-0.3,0.5-0.1,1.2,0.4,1.5L253.2,128.6"/>
<path vector-effect="non-scaling-stroke" class="st0" d="M349.7,121.5c-0.3-0.5-1-0.7-1.5-0.4l-3.6,2.1c-0.5,0.3-0.7,1-0.4,1.5
	l2,3.5c0.3,0.5,1,0.7,1.5,0.4l3.6-2.1c0.5-0.3,0.7-1,0.4-1.5L349.7,121.5"/>
<path vector-effect="non-scaling-stroke" class="st0" d="M365.3,126.3c-0.3-0.6-1-0.8-1.6-0.5l-3.7,1.8c-0.6,0.3-0.8,1-0.5,1.6
	l1.8,3.6c0.3,0.6,1,0.8,1.6,0.5l3.7-1.8c0.6-0.3,0.8-1,0.5-1.6L365.3,126.3"/>
<path vector-effect="non-scaling-stroke" class="st1" d="M241.4,129.2c0.3-0.5,0-1.1-0.5-1.4l-3.7-1.8c-0.5-0.3-1.1,0-1.4,0.5
	l-1.8,3.7c-0.3,0.5,0,1.1,0.5,1.4l3.7,1.8c0.5,0.3,1.1,0,1.4-0.5L241.4,129.2"/>
<path vector-effect="non-scaling-stroke" class="st0" d="M127.3,272.4c-1.9,13.1-2.6,25.3-1.9,36.6
	c6.4,116.3,121.5,192.6,231.9,155.8"/>
<path vector-effect="non-scaling-stroke" class="st1" d="M357.3,464.8c33.4-11.5,60.9-31.1,82.5-58.8c22.2-28.6,34.5-62.6,36-99
	c2.8-64.5-31.6-124.1-86.7-156.4c-48.1-28.2-109.1-31.3-160.1-8.6c-4.1,1.9-8.7,4.3-13,6.5c-3.8,1.9-7,3.7-9.5,5.3
	c-42.1,27.2-70.5,69-79.1,118.7"/>
<path vector-effect="non-scaling-stroke" class="st2" d="M357.3,464.8l0.1-1.5c0-0.4-0.1-0.6-0.5-0.7l-6.8-2.2"/>
<path vector-effect="non-scaling-stroke" class="st1" d="M350.1,460.4c29.9-9.3,55.2-25.3,75.8-48c24.9-27.4,39.2-59.6,42.7-96.5
	c3.5-36.7-5.7-74.4-25.4-104.9c-24.1-37.4-62.7-64.5-106-73.8c-42.8-9.2-89-2.1-126.5,21.7c-39.7,25.2-66.9,63.7-76.1,109.8"/>
<path vector-effect="non-scaling-stroke" class="st2" d="M132.3,266.3c-0.3,0-0.4,0.1-0.4,0.4l-0.1,4.2c0,0.4-0.2,0.7-0.5,0.8
	c-0.8,0.3-1.5,0.3-2.2-0.2c-0.3-0.2-0.7-0.2-0.9,0.1l-0.9,0.8"/>
<path vector-effect="non-scaling-stroke" class="st2" d="M134.6,268.8"/>
<path vector-effect="non-scaling-stroke" class="st0" d="M350.1,460.4c-38.1,10.9-75.5,9.4-112.2-4.5c-1.8-0.7-3.8-1.6-6.1-2.7
	c-5-2.5-10.6-5-14.9-7.4c-30.5-17.5-53.4-41.6-68.5-72.4c-16-32.6-20.6-67.5-13.8-104.6"/>
<path vector-effect="non-scaling-stroke" class="st0" d="M380.4,132.5c-0.2-0.4-0.6-0.7-1.1-0.5l-4.4,1.6c-0.4,0.2-0.7,0.6-0.5,1.1
	l1.5,4.3c0.2,0.4,0.6,0.7,1.1,0.5l4.4-1.6c0.4-0.2,0.7-0.6,0.5-1.1L380.4,132.5"/>
<path vector-effect="non-scaling-stroke" class="st1" d="M219.2,136.6c-0.2,0.6,0.1,1.2,0.7,1.4l3.9,1.2c0.5,0.2,1.1-0.1,1.3-0.6
	l1.6-3.6c0.2-0.6,0-1.2-0.6-1.5l-4.1-1.5c-0.6-0.2-1.2,0.1-1.4,0.6L219.2,136.6"/>
<path vector-effect="non-scaling-stroke" class="st1" d="M394.8,140.1c-0.1-0.5-0.7-0.8-1.2-0.7l-4.2,1.1c-0.5,0.1-0.8,0.7-0.7,1.2
	l1.1,4.2c0.1,0.5,0.7,0.8,1.2,0.7l4.2-1.1c0.5-0.1,0.8-0.7,0.7-1.2L394.8,140.1"/>
<path vector-effect="non-scaling-stroke" class="st1" d="M212.2,141.6c0.1-0.5-0.2-0.9-0.6-1.1l-4.4-1.1c-0.5-0.1-0.9,0.2-1.1,0.6
	l-1.1,4.5c-0.1,0.5,0.2,0.9,0.6,1.1l4.4,1.1c0.5,0.1,0.9-0.2,1.1-0.6L212.2,141.6"/>
<path vector-effect="non-scaling-stroke" class="st1" d="M198.6,149.8c0.1-0.5-0.2-0.9-0.7-1l-4.5-0.8c-0.5-0.1-0.9,0.2-1,0.7
	l-0.8,4.6c-0.1,0.5,0.2,0.9,0.7,1l4.5,0.8c0.5,0.1,0.9-0.2,1-0.7L198.6,149.8"/>
<path vector-effect="non-scaling-stroke" class="st1" d="M408.7,154c0.4-0.1,0.7-0.5,0.6-0.9l-0.6-4.3c-0.1-0.4-0.5-0.8-0.9-0.7
	l-4.8,0.6c-0.5,0.1-0.8,0.5-0.7,0.9l0.8,4.7c0.1,0.5,0.5,0.8,1,0.7L408.7,154"/>
<path vector-effect="non-scaling-stroke" class="st1" d="M185.9,159.1c0-0.4-0.2-0.7-0.6-0.7l-5.1-0.5c-0.4,0-0.7,0.2-0.7,0.6
	l-0.5,4.8c0,0.4,0.2,0.7,0.6,0.7l5.1,0.5c0.4,0,0.7-0.2,0.7-0.6L185.9,159.1"/>
<path vector-effect="non-scaling-stroke" class="st1" d="M421,163.8c0.3-0.1,0.6-0.4,0.6-0.7l-0.2-4.4c0-0.4-0.4-0.7-0.8-0.7
	l-4.8,0.1c-0.4,0-0.8,0.4-0.7,0.8l0.6,5.2c0.1,0.4,0.5,0.7,0.9,0.6L421,163.8"/>
<path vector-effect="non-scaling-stroke" class="st1" d="M173.9,169.8c0-0.5-0.4-0.9-0.9-0.9l-4.7,0c-0.5,0-0.9,0.4-0.9,0.9l0,4.4
	c0,0.5,0.4,0.9,0.9,0.9l4.7,0c0.5,0,0.9-0.4,0.9-0.9L173.9,169.8"/>
<path vector-effect="non-scaling-stroke" class="st1" d="M433.5,169.5c0-0.4-0.3-0.6-0.7-0.6l-4.9,0c-0.4,0-0.6,0.3-0.6,0.7l0,4.8
	c0,0.4,0.3,0.6,0.7,0.6l4.9,0c0.4,0,0.6-0.3,0.6-0.7L433.5,169.5"/>
<path vector-effect="non-scaling-stroke" class="st1" d="M162.4,186.3c0.4-0.1,0.7-0.4,0.7-0.8l-0.2-4.6c0-0.5-0.4-0.8-0.9-0.8
	l-4.8,0.6c-0.4,0.1-0.7,0.4-0.7,0.9l0.4,4.8c0,0.5,0.5,0.8,0.9,0.7L162.4,186.3"/>
<path vector-effect="non-scaling-stroke" class="st1" d="M444.7,182c0.1-0.6-0.3-1.2-0.9-1.2l-4.4-0.5c-0.6-0.1-1,0.3-1.1,0.9
	l-0.4,4.4c-0.1,0.6,0.4,1.1,1,1.1l4,0c0.5,0,0.9-0.3,1-0.8L444.7,182"/>
<path vector-effect="non-scaling-stroke" class="st1" d="M152.7,193.3c-0.1-0.4-0.4-0.6-0.8-0.6l-4.8,0.8c-0.4,0.1-0.6,0.4-0.6,0.8
	l0.8,4.8c0.1,0.4,0.4,0.6,0.8,0.6l4.8-0.8c0.4-0.1,0.6-0.4,0.6-0.8L152.7,193.3"/>
<path vector-effect="non-scaling-stroke" class="st1" d="M454.5,194.3c0.1-0.5-0.3-0.9-0.7-1l-4.7-0.7c-0.5-0.1-0.9,0.3-1,0.7
	l-0.6,4.5c-0.1,0.5,0.3,0.9,0.7,1l4.7,0.7c0.5,0.1,0.9-0.3,1-0.7L454.5,194.3"/>
<path vector-effect="non-scaling-stroke" class="st1" d="M463.2,208.2c0.2-0.5-0.1-1.1-0.7-1.2l-4.2-1.2c-0.5-0.2-1.1,0.1-1.2,0.7
	l-1.2,4.2c-0.2,0.5,0.1,1.1,0.7,1.2l4.2,1.2c0.5,0.2,1.1-0.1,1.2-0.7L463.2,208.2"/>
<path vector-effect="non-scaling-stroke" class="st1" d="M144,206.4c-0.1-0.3-0.4-0.5-0.8-0.5l-4.9,1.2c-0.3,0.1-0.5,0.4-0.5,0.8
	l1.2,4.7c0.1,0.3,0.4,0.5,0.8,0.5l4.9-1.2c0.3-0.1,0.5-0.4,0.5-0.8L144,206.4"/>
<path vector-effect="non-scaling-stroke" class="st1" d="M136.1,220.4c-0.2-0.4-0.6-0.6-1.1-0.5l-4.2,1.6c-0.4,0.2-0.6,0.6-0.5,1.1
	l1.7,4.4c0.2,0.4,0.6,0.6,1.1,0.5l4.2-1.6c0.4-0.2,0.6-0.6,0.5-1.1L136.1,220.4"/>
<path vector-effect="non-scaling-stroke" class="st1" d="M470.7,222.5c0.1-0.4-0.1-0.9-0.5-1l-4.5-1.5c-0.4-0.1-0.9,0.1-1,0.5
	l-1.4,4.3c-0.1,0.4,0.1,0.9,0.5,1l4.5,1.5c0.4,0.1,0.9-0.1,1-0.5L470.7,222.5"/>
<path vector-effect="non-scaling-stroke" class="st1" d="M476.9,237.6c0.2-0.4,0-0.9-0.4-1.1l-4.1-1.9c-0.4-0.2-0.9,0-1.1,0.4
	l-2,4.2c-0.2,0.4,0,0.9,0.4,1.1l4.1,1.9c0.4,0.2,0.9,0,1.1-0.4L476.9,237.6"/>
<path vector-effect="non-scaling-stroke" class="st1" d="M129.8,235c-0.2-0.4-0.6-0.6-1-0.4l-4.3,2c-0.4,0.2-0.6,0.6-0.4,1l1.9,4.1
	c0.2,0.4,0.6,0.6,1,0.4l4.3-2c0.4-0.2,0.6-0.6,0.4-1L129.8,235"/>
<path vector-effect="non-scaling-stroke" class="st1" d="M124.6,250c-0.3-0.4-0.8-0.6-1.3-0.3l-3.7,2.2c-0.4,0.3-0.6,0.8-0.3,1.3
	l2.2,3.7c0.3,0.4,0.8,0.6,1.3,0.3l3.7-2.2c0.4-0.3,0.6-0.8,0.3-1.3L124.6,250"/>
<path vector-effect="non-scaling-stroke" class="st1" d="M474.1,253.1c-0.5,0.7-0.3,1.7,0.5,2.1l3.3,1.8c0.7,0.4,1.5,0.1,2-0.5
	l1.7-3c0.4-0.7,0.1-1.6-0.6-2l-3.1-1.6c-0.6-0.3-1.4-0.1-1.8,0.4L474.1,253.1"/>
<path vector-effect="non-scaling-stroke" class="st1" d="M485.3,269c0.3-0.5,0.2-1.1-0.3-1.4l-3.6-2.5c-0.5-0.3-1.1-0.2-1.4,0.3
	l-2.5,3.6c-0.3,0.5-0.2,1.1,0.3,1.4l3.6,2.5c0.5,0.3,1.1,0.2,1.4-0.3L485.3,269"/>
<path vector-effect="non-scaling-stroke" class="st1" d="M120.8,265.2c-0.2-0.3-0.7-0.4-1-0.2l-4,2.9c-0.3,0.2-0.4,0.7-0.2,1
	l2.8,3.9c0.2,0.3,0.7,0.4,1,0.2l4-2.9c0.3-0.2,0.4-0.7,0.2-1L120.8,265.2"/>
<path vector-effect="non-scaling-stroke" class="st1" d="M113.5,284.2c-0.2,0.2-0.2,0.5,0,0.7l3.5,3.7c0.2,0.2,0.4,0.2,0.6,0
	l3.9-3.3c0.2-0.2,0.2-0.5,0.1-0.7l-3.5-4.2c-0.2-0.2-0.5-0.2-0.7,0L113.5,284.2"/>
<path vector-effect="non-scaling-stroke" class="st1" d="M483.9,280.7c-0.4-0.4-1.1-0.3-1.5,0.1l-2.6,3.2c-0.3,0.4-0.3,1,0.1,1.4
	l3,2.9c0.4,0.4,1.1,0.4,1.5,0l3-3.3c0.4-0.4,0.3-1.1-0.1-1.5L483.9,280.7"/>
<path vector-effect="non-scaling-stroke" class="st1" d="M484.8,296.7c-0.3-0.3-0.8-0.3-1.2,0l-3.3,3.3c-0.3,0.3-0.3,0.8,0,1.2
	l3.3,3.3c0.3,0.3,0.8,0.3,1.2,0l3.3-3.3c0.3-0.3,0.3-0.8,0-1.2L484.8,296.7"/>
<path vector-effect="non-scaling-stroke" class="st1" d="M113.1,299.8c-0.3,0.3-0.3,0.7-0.1,1l3.2,3.6c0.3,0.3,0.8,0.3,1.1,0
	l3.2-3.6c0.3-0.3,0.2-0.7,0-1l-3.1-3.1c-0.3-0.3-0.7-0.3-1,0L113.1,299.8"/>
<path vector-effect="non-scaling-stroke" class="st1" d="M118.3,312.6c-0.6-0.7-1.6-0.6-2.1,0.1l-2.3,3.1c-0.4,0.6-0.3,1.4,0.2,1.8
	l2.6,2.3c0.6,0.5,1.4,0.5,1.9-0.1l2.3-2.5c0.5-0.5,0.5-1.3,0-1.8L118.3,312.6"/>
<path vector-effect="non-scaling-stroke" class="st1" d="M484.4,312.6c-0.3-0.4-0.8-0.4-1.2-0.1l-3.5,3c-0.4,0.3-0.4,0.8-0.1,1.2
	l3,3.4c0.3,0.4,0.8,0.4,1.2,0.1l3.5-3c0.4-0.3,0.4-0.8,0.1-1.2L484.4,312.6"/>
<path vector-effect="non-scaling-stroke" class="st1" d="M123.6,331.9c0.2-0.3,0.1-0.8-0.2-1l-4-2.7c-0.3-0.2-0.8-0.1-1,0.2l-2.7,4
	c-0.2,0.3-0.1,0.8,0.2,1l4,2.7c0.3,0.2,0.8,0.1,1-0.2L123.6,331.9"/>
<path vector-effect="non-scaling-stroke" class="st1" d="M482.6,328.3c-0.2-0.3-0.6-0.4-1-0.2l-4,2.7c-0.3,0.2-0.4,0.6-0.2,1
	l2.6,3.8c0.2,0.3,0.6,0.4,1,0.2l4-2.7c0.3-0.2,0.4-0.6,0.2-1L482.6,328.3"/>
<path vector-effect="non-scaling-stroke" class="st1" d="M126.9,347.1c0.2-0.4,0.1-0.9-0.3-1.1l-4.1-2.4c-0.4-0.2-0.9-0.1-1.1,0.3
	L119,348c-0.2,0.4-0.1,0.9,0.3,1.1l4.1,2.4c0.4,0.2,0.9,0.1,1.1-0.3L126.9,347.1"/>
<path vector-effect="non-scaling-stroke" class="st1" d="M479.6,344.3c-0.3-0.5-0.9-0.6-1.4-0.3l-3.6,2.2c-0.5,0.3-0.6,0.9-0.3,1.4
	l2.1,3.4c0.3,0.5,0.9,0.6,1.4,0.3l3.6-2.2c0.5-0.3,0.6-0.9,0.3-1.4L479.6,344.3"/>
<path vector-effect="non-scaling-stroke" class="st1" d="M131.8,361.9c0.2-0.4,0-0.9-0.4-1.1l-4.4-2c-0.4-0.2-0.9,0-1.1,0.4
	l-1.9,4.2c-0.2,0.4,0,0.9,0.4,1.1l4.4,2c0.4,0.2,0.9,0,1.1-0.4L131.8,361.9"/>
<path vector-effect="non-scaling-stroke" class="st1" d="M474.9,359.3c-0.2-0.4-0.7-0.6-1.1-0.4l-4.1,2c-0.4,0.2-0.6,0.7-0.4,1.1
	l2,4.1c0.2,0.4,0.7,0.6,1.1,0.4l4.1-2c0.4-0.2,0.6-0.7,0.4-1.1L474.9,359.3"/>
<path vector-effect="non-scaling-stroke" class="st1" d="M137.8,376.3c0.2-0.5-0.1-1.1-0.6-1.3l-4.1-1.5c-0.5-0.2-1.1,0.1-1.3,0.6
	l-1.5,4.1c-0.2,0.5,0.1,1.1,0.6,1.3l4.1,1.5c0.5,0.2,1.1-0.1,1.3-0.6L137.8,376.3"/>
<path vector-effect="non-scaling-stroke" class="st0" d="M469.2,374.1c-0.1-0.4-0.6-0.6-1-0.5l-4.4,1.5c-0.4,0.1-0.6,0.6-0.5,1
	l1.5,4.3c0.1,0.4,0.6,0.6,1,0.5l4.4-1.5c0.4-0.1,0.6-0.6,0.5-1L469.2,374.1"/>
<path vector-effect="non-scaling-stroke" class="st1" d="M145,389.9c0.1-0.5-0.2-1-0.7-1.1l-4.3-1c-0.5-0.1-1,0.2-1.1,0.7l-1,4.4
	c-0.1,0.5,0.2,1,0.7,1.1l4.3,1c0.5,0.1,1-0.2,1.1-0.7L145,389.9"/>
<path vector-effect="non-scaling-stroke" class="st1" d="M462,388.4c-0.1-0.4-0.5-0.7-1-0.6l-4.4,1.1c-0.4,0.1-0.7,0.5-0.6,1
	l1.2,4.6c0.1,0.4,0.5,0.7,1,0.6l4.4-1.1c0.4-0.1,0.7-0.5,0.6-1L462,388.4"/>
<path vector-effect="non-scaling-stroke" class="st0" d="M153.7,403c0.1-0.5-0.2-0.9-0.7-1l-4.7-0.8c-0.5-0.1-0.9,0.2-1,0.7
	l-0.8,4.6c-0.1,0.5,0.2,0.9,0.7,1l4.7,0.8c0.5,0.1,0.9-0.2,1-0.7L153.7,403"/>
<path vector-effect="non-scaling-stroke" class="st1" d="M453.7,401.9c-0.1-0.4-0.5-0.7-0.9-0.7l-4.7,0.9c-0.4,0.1-0.7,0.5-0.7,0.9
	l0.8,4.5c0.1,0.4,0.5,0.7,0.9,0.7l4.7-0.9c0.4-0.1,0.7-0.5,0.7-0.9L453.7,401.9"/>
<path vector-effect="non-scaling-stroke" class="st1" d="M163.1,415.4c0-0.4-0.3-0.8-0.7-0.8l-4.4-0.5c-0.4,0-0.9,0.3-0.9,0.7
	l-0.5,4.5c-0.1,0.4,0.3,0.8,0.7,0.9l4.8,0.7c0.5,0.1,0.9-0.3,0.9-0.8L163.1,415.4"/>
<path vector-effect="non-scaling-stroke" class="st1" d="M444,414.7c0-0.3-0.3-0.6-0.6-0.5l-4.9,0.4c-0.3,0-0.6,0.3-0.5,0.6l0.4,4.8
	c0,0.3,0.3,0.6,0.6,0.5l4.9-0.4c0.3,0,0.6-0.3,0.5-0.6L444,414.7"/>
<path vector-effect="non-scaling-stroke" class="st0" d="M173.8,426.7c0-0.4-0.3-0.7-0.7-0.7l-5,0c-0.4,0-0.7,0.3-0.7,0.7l0,4.9
	c0,0.4,0.3,0.7,0.7,0.7l5,0c0.4,0,0.7-0.3,0.7-0.7L173.8,426.7"/>
<path vector-effect="non-scaling-stroke" class="st0" d="M433.4,427c0-0.4-0.3-0.7-0.6-0.7l-4.6-0.4c-0.4,0-0.8,0.3-0.8,0.7
	l-0.1,4.9c0,0.4,0.3,0.7,0.7,0.7l4.5-0.1c0.4,0,0.7-0.3,0.7-0.7L433.4,427"/>
<path vector-effect="non-scaling-stroke" class="st1" d="M185.2,437c0-0.3-0.3-0.5-0.5-0.5l-5.1,0.4c-0.3,0-0.5,0.3-0.5,0.5l0.4,5
	c0,0.3,0.3,0.5,0.5,0.5l5.1-0.4c0.3,0,0.5-0.3,0.5-0.5L185.2,437"/>
<path vector-effect="non-scaling-stroke" class="st0" d="M421.9,437.9c0-0.5-0.3-0.9-0.8-1l-4.5-0.4c-0.5,0-0.9,0.3-1,0.8l-0.5,4.6
	c0,0.5,0.3,0.9,0.8,1l4.5,0.4c0.5,0,0.9-0.3,1-0.8L421.9,437.9"/>
<path vector-effect="non-scaling-stroke" class="st0" d="M197.9,446.7c-0.1-0.4-0.5-0.7-0.9-0.6l-4.7,0.9c-0.4,0.1-0.7,0.5-0.6,0.9
	l0.8,4.4c0.1,0.4,0.5,0.7,0.9,0.6l4.7-0.9c0.4-0.1,0.7-0.5,0.6-0.9L197.9,446.7"/>
<path vector-effect="non-scaling-stroke" class="st0" d="M409.3,447.8c0.1-0.4-0.2-0.9-0.6-0.9l-4.5-0.8c-0.4-0.1-0.9,0.2-0.9,0.6
	l-0.8,4.4c-0.1,0.4,0.2,0.9,0.6,0.9l4.5,0.8c0.4,0.1,0.9-0.2,0.9-0.6L409.3,447.8"/>
<path vector-effect="non-scaling-stroke" class="st0" d="M211.3,455.2c-0.1-0.6-0.7-0.9-1.3-0.8l-4.1,1.1c-0.6,0.1-0.9,0.7-0.8,1.3
	l1,4.1c0.1,0.6,0.7,0.9,1.3,0.8l4.1-1.1c0.6-0.1,0.9-0.7,0.8-1.3L211.3,455.2"/>
<path vector-effect="non-scaling-stroke" class="st0" d="M396,456.6c0.1-0.4-0.1-0.9-0.6-1l-4.6-1.2c-0.4-0.1-0.9,0.1-1,0.6
	l-1.2,4.4c-0.1,0.4,0.1,0.9,0.6,1l4.6,1.2c0.4,0.1,0.9-0.1,1-0.6L396,456.6"/>
<path vector-effect="non-scaling-stroke" class="st1" d="M381.9,464.1c0.2-0.4-0.1-0.9-0.5-1l-4.4-1.5c-0.4-0.1-0.9,0.1-1,0.5
	l-1.5,4.4c-0.2,0.4,0.1,0.9,0.5,1l4.4,1.5c0.4,0.1,0.9-0.1,1-0.5L381.9,464.1"/>
<path vector-effect="non-scaling-stroke" class="st0" d="M224.9,462.1c-0.2-0.5-0.8-0.8-1.4-0.5l-3.9,1.6c-0.5,0.2-0.8,0.8-0.5,1.4
	l1.6,3.8c0.2,0.5,0.8,0.8,1.4,0.5l3.9-1.6c0.5-0.2,0.8-0.8,0.5-1.4L224.9,462.1"/>
<path vector-effect="non-scaling-stroke" class="st0" d="M239.5,467.9c-0.2-0.4-0.6-0.5-1-0.3l-4.3,2.1c-0.4,0.2-0.5,0.6-0.3,1
	l2,4.2c0.2,0.4,0.6,0.5,1,0.3l4.3-2.1c0.4-0.2,0.5-0.6,0.3-1L239.5,467.9"/>
<path vector-effect="non-scaling-stroke" class="st0" d="M367.2,470.6c0.2-0.4,0-0.9-0.4-1.1l-4.3-1.9c-0.4-0.2-0.9,0-1.1,0.4
	l-1.9,4.3c-0.2,0.4,0,0.9,0.4,1.1l4.3,1.9c0.4,0.2,0.9,0,1.1-0.4L367.2,470.6"/>
<path vector-effect="non-scaling-stroke" class="st1" d="M351.9,475.7c0.2-0.4,0.1-0.9-0.3-1.2l-4-2.3c-0.4-0.2-0.9-0.1-1.2,0.3
	l-2.2,4c-0.2,0.4-0.1,0.9,0.3,1.2l4,2.3c0.4,0.2,0.9,0.1,1.2-0.3L351.9,475.7"/>
<path vector-effect="non-scaling-stroke" class="st1" d="M254.4,472.5c-0.2-0.3-0.6-0.4-0.9-0.2l-4.2,2.5c-0.3,0.2-0.4,0.6-0.2,0.9
	l2.5,4.1c0.2,0.3,0.6,0.4,0.9,0.2l4.2-2.5c0.3-0.2,0.4-0.6,0.2-0.9L254.4,472.5"/>
<path vector-effect="non-scaling-stroke" class="st0" d="M270,476c-0.3-0.4-0.9-0.5-1.3-0.2l-3.6,2.5c-0.4,0.3-0.5,0.9-0.2,1.3
	l2.5,3.6c0.3,0.4,0.9,0.5,1.3,0.2l3.6-2.5c0.4-0.3,0.5-0.9,0.2-1.3L270,476"/>
<path vector-effect="non-scaling-stroke" class="st0" d="M336.3,479.6c0.3-0.4,0.2-1-0.2-1.3l-3.8-2.6c-0.4-0.3-1-0.2-1.3,0.2
	l-2.6,3.7c-0.3,0.4-0.2,1,0.2,1.3l3.8,2.6c0.4,0.3,1,0.2,1.3-0.2L336.3,479.6"/>
<path vector-effect="non-scaling-stroke" class="st1" d="M285.4,477.9c-0.3-0.4-0.8-0.4-1.2-0.1l-3.5,3.1c-0.4,0.3-0.4,0.8-0.1,1.2
	l3,3.5c0.3,0.4,0.8,0.4,1.2,0.1l3.5-3.1c0.4-0.3,0.4-0.8,0.1-1.2L285.4,477.9"/>
<path vector-effect="non-scaling-stroke" class="st0" d="M320.4,481.9c0.3-0.4,0.3-1-0.1-1.3l-3.4-2.8c-0.4-0.3-1-0.3-1.3,0.1
	l-2.9,3.5c-0.3,0.4-0.3,1,0.1,1.3l3.4,2.8c0.4,0.3,1,0.3,1.3-0.1L320.4,481.9"/>
<path vector-effect="non-scaling-stroke" class="st0" d="M301.2,478.4c-0.4-0.4-0.9-0.4-1.3,0l-3.3,3.2c-0.4,0.4-0.4,0.9,0,1.3
	l3.2,3.3c0.4,0.4,0.9,0.4,1.3,0l3.3-3.2c0.4-0.4,0.4-0.9,0-1.3L301.2,478.4"/>
<path vector-effect="non-scaling-stroke" class="st1" d="M350.4,281.5c1.8,4.9,2.9,8,3.5,9.3c0.4,1,0.4,1.9,0.1,2.6
	c-0.1,0.1-0.2,0.2-0.3,0.3l-4.1,2c-0.5,0.3-0.3,1,0.2,1l20.4-0.1c0.6,0,0.8-0.8,0.2-1.1c-3-1.2-4.2-3-5.5-6.1
	c-5.4-13.3-10.8-26.3-16.3-39.1c-1.1-2.5-4.6-2.4-5.6,0.1c-5.2,13.2-10.6,26.8-16.2,40.7c-1,2.6-2.5,3.3-4.8,4.6
	c-0.4,0.2-0.2,0.8,0.2,0.8l12.5,0.1c0.4,0,0.7-0.3,0.8-0.7c0-0.4-0.2-0.7-0.6-0.8c-2.6-0.6-4.1-1.9-3.2-4.8c0.9-3,2.1-5.9,3.4-8.7
	c0.1-0.3,0.5-0.5,0.8-0.5l14-0.1C350.1,281.1,350.3,281.2,350.4,281.5"/>
<path vector-effect="non-scaling-stroke" class="st1" d="M189.1,252.6c0.2,13,0.3,26.1,0,39.1c0,2.2-1.2,3.2-3.3,3.4
	c-0.3,0-0.6,0.2-0.7,0.4l-0.2,0.3c-0.3,0.3,0,0.8,0.4,0.8l19.3,0c0.2,0,0.5-0.2,0.5-0.4c0-0.2-0.1-0.5-0.3-0.6l-3.2-1.1
	c-0.3-0.1-0.5-0.3-0.7-0.6c-0.4-0.9-0.6-2-0.6-3.3c0-11.7,0-23.5-0.1-35.2c0-2.8,1.4-4.4,4.4-4.7c0.4,0,0.5-0.6,0.2-0.8
	c-0.3-0.2-0.6-0.3-1.1-0.3c-6-0.1-12-0.2-17.9-0.2c-0.3,0-0.5,0.2-0.5,0.5c0,0.5,0.2,0.8,0.7,0.9c1,0.1,1.9,0.4,2.8,0.9
	C188.9,252,189.1,252.3,189.1,252.6"/>
<path vector-effect="non-scaling-stroke" class="st1" d="M299.9,276.3c6.9,0.2,17.6,1.1,22.4-6.1c2.3-3.5,3-7.4,2-11.8
	c-1.9-7.9-8.9-8.7-16.5-8.8c-7.8-0.2-15.7-0.1-23.5,0.2c-0.5,0-0.6,0.6-0.1,0.8l3.1,1.3c0.6,0.2,1,0.8,1,1.5
	c0.1,12.6,0.1,25.3-0.1,38c0,1.1-0.3,1.9-0.7,2.4c-1,1.1-2.5,0.8-3.4,1.6c-0.5,0.5-0.2,1.3,0.5,1.3h20.4c0.7,0,0.9-0.9,0.2-1.2
	l-5-2.2c-0.4-0.2-0.6-0.5-0.6-0.9l0-15.6C299.3,276.5,299.5,276.3,299.9,276.3"/>
<path vector-effect="non-scaling-stroke" class="st1" d="M291.2,324.7c3-0.6,5.9-2.5,8.8-2.6c4.7-0.2,8.1,3.8,13.2,2.4
	c2.7-0.7,5.4-1.6,8.1-2.6c0.3-0.1,0.7-0.1,1,0c3,0.9,5.9,1.8,8.9,2.8c0.3,0.1,0.5,0.1,0.7,0c0.3-0.1,0.5-0.3,0.6-0.5
	c0.3-0.6,0-1.3-0.7-1.4c-5.5-1.7-9-4.1-15.3-1.6c-4.2,1.7-6.7,1.3-11.2-0.4c-6.5-2.4-10.1,1.6-16.2,1.4c-0.9,0-2.4-0.4-4.3-1.2
	c-6.2-2.5-10.2,0.3-16.1,1.5c-0.3,0.1-0.5,0.3-0.5,0.6l0,1.3c0,0.3,0.3,0.6,0.6,0.5c2.9-0.6,5.7-1.4,8.5-2.5
	C281.4,320.8,286.4,325.6,291.2,324.7"/>
<path vector-effect="non-scaling-stroke" class="st0" d="M286.5,365.2c-0.2,0.4-0.7,0.4-1,0.1l-10.8-10.5c-0.8-0.7-2-0.1-1.9,0.9
	c0.1,1,0.6,1.9,1.6,2.9c2.7,2.8,5.7,5.6,8.8,8.5c0.5,0.5,0.3,1.3-0.3,1.5c-0.7,0.2-1.4,0-2.1-0.6c-2.8-2.9-5.6-5.8-8.2-8.7
	c-0.9-1-1.7-1.3-2.6-1.1c-1,0.2-1.4,1.5-0.7,2.3c4.2,4.4,8.3,8.5,12.4,12.5c2.6,2.6,5.4,3.6,8.4,3.2c0.4,0,0.7,0.1,1,0.3l6.4,6.1
	c0.6,0.5,0.6,1.5,0,2l-19.8,19.6c-0.9,0.9-0.8,2.4,0.2,3.2c1.5,1.1,2.9,1,4.2-0.4c6.4-6.5,12.9-12.9,19.4-19.4
	c0.3-0.3,0.5-0.3,0.8,0c7.1,7.1,14.2,14.1,21.4,21.1c3.2,3.1,6.2-1,3.2-4c-7-6.9-14-13.8-21-20.7c-0.2-0.2-0.2-0.6,0-0.8l2-1.8
	c0.3-0.3,0.6-0.3,0.9,0l2.2,2.2c0.3,0.3,0.8,0.3,1.1-0.1c7.7-9.5,15.4-18.2,20.6-29.6c0.5-1.1-0.1-2.3-1.3-2.6
	c-0.1,0-0.4,0.2-0.8,0.5c-9.4,9.1-18.7,18.3-28,27.5c-0.4,0.4-1,0.4-1.4,0l-6.5-6.6c-0.2-0.2-0.4-0.6-0.3-0.9c0.3-2.9-0.1-5-2.2-7.2
	c-3.9-3.9-7.8-7.8-11.8-11.6c-0.9-0.9-1.9-2-3.2-2.2c-1.2-0.1-1.9,1.2-1.1,2.1c3.1,3.4,6.3,6.6,9.7,9.6
	C286.5,363.2,287,364.3,286.5,365.2"/>
<path vector-effect="non-scaling-stroke" class="st2" d="M349.2,278l2.2,0.2c0.3,0,0.6-0.1,0.8-0.4c0.3-0.4,0.8-0.6,1.5-0.6
	c1.1,0,1.6-1.4,0.7-2c-0.9-0.6-1.9-0.9-3.1-0.9c-0.4,0-0.7,0-1.1-0.2c-1.4-0.7-2.2-0.7-2.7-0.1"/>
<path vector-effect="non-scaling-stroke" class="st1" d="M347.6,274.1l-5.1-13.1c-0.1-0.2-0.2-0.3-0.4-0.2c-0.2,0-0.3,0.2-0.3,0.4
	c0.1,1.3,0.1,2.2-0.4,3.5c-1.7,4.3-3.3,8.6-4.9,13c-0.1,0.4,0,0.5,0.4,0.5l12.4-0.1"/>
<path vector-effect="non-scaling-stroke" class="st0" d="M347.6,274.1l1.6,3.9"/>
<path vector-effect="non-scaling-stroke" class="st1" d="M299.1,253.2l-0.1,19.2c0,0.4,0.3,0.7,0.7,0.7l5,0c4.5,0,8.1-3.7,8.1-8.2
	l0-4c0-4.6-3.6-8.3-8.1-8.3l-5,0C299.5,252.6,299.1,252.9,299.1,253.2"/>
<path vector-effect="non-scaling-stroke" class="st1" d="M388.1,253.1v19.4c0,0.4,0.3,0.7,0.7,0.7h6.1c4.4,0,8-3.6,8-8v-4.8
	c0-4.4-3.6-8-8-8h-6.1C388.4,252.5,388.1,252.8,388.1,253.1"/>
<path vector-effect="non-scaling-stroke" class="st2" d="M130.3,280.2c0.6,0.3,1.2-0.4,0.9-1c-0.5-1-0.7-2-0.5-3
	c0.1-0.5-0.2-1.1-0.8-1.2c-0.5-0.1-1.1,0.2-1.3,0.7C127.8,277.9,128.4,279.4,130.3,280.2"/>
<path class="st3" d="M433,446.8l0.3-3.5c0.1-0.8-0.8-1.3-1.4-0.8c-1.5,1.2-3.4,1.6-5.5,1.4c6.8-5.8,12.6-11.5,17.4-16.8
	c22.9-25.7,39.7-58.5,45.6-92.7c5.8-33.1,3.1-65.6-7.9-97.7c-0.9-2.7-1.9-5.3-3-7.9c-25.1-58.2-74.1-99.9-135.7-113.7
	c-39.9-9-82.3-5-119.3,11.1c-75.8,33.1-121.5,109.4-114.4,192.2c0.2,2.2,0.5,4.9,1.1,7.9c0.4,2.6,0.9,5.2,1.3,7.8
	c-1.2,0.9-2.1,1.9-2.7,3c-0.1,0.2-0.1,0.4,0.1,0.5c0.6,0.7,0.7,1.5,0.3,2.4c-0.2,0.3-0.2,0.3-0.2-0.1l0-1c0-0.3-0.2-0.5-0.5-0.7
	c-1.1-0.4-2.1-0.2-2.8,0.6c-3.1-16-4.1-31.6-3.5-47.8c1.4-36.5,14.1-73.1,34.7-102.5c11.8-16.8,26.4-31.8,43.7-45
	c35.3-26.9,79.5-40.6,123.6-39.8c40.1,0.7,76.8,12.6,110,35.5c6.6,4.5,14.4,11.1,19.7,15.8c39.4,35,63.4,86.3,64.9,139
	C500.6,353.2,476.8,407.5,433,446.8z"/>
<path class="st4" d="M426.5,443.9c-7.4,6-15.1,12.2-22.9,17c-38.7,23.8-80.9,33.2-126.4,28.1c-43.5-4.9-84.7-25.6-114.9-56.6
	c-11.2-11.4-21.4-25-30.5-40.8c-1.5-2.5-2.7-6-4.6-8.9c-0.7-1.1-0.8-2-1.3-3.2c-6.6-14.6-11.3-29.7-14.3-45.4
	c-0.4-2.6-0.8-5.2-1.3-7.8c-0.5-3-0.9-5.6-1.1-7.9c-7.1-82.8,38.6-159.1,114.4-192.2c37-16.2,79.4-20.1,119.3-11.1
	c61.7,13.8,110.7,55.5,135.7,113.7c1.1,2.6,2.1,5.2,3,7.9c11,32,13.6,64.6,7.9,97.7c-5.9,34.2-22.8,67-45.6,92.7
	C439.1,432.5,433.3,438.1,426.5,443.9z M301.1,114.8c-0.3-0.3-0.8-0.3-1.1,0l-3.5,3.4c-0.3,0.3-0.3,0.8,0,1.1l3.4,3.4
	c0.3,0.3,0.8,0.3,1.1,0l3.5-3.4c0.3-0.3,0.3-0.8,0-1.1L301.1,114.8z M288.3,119.8c0.4-0.4,0.3-1.1-0.1-1.5l-3.2-2.8
	c-0.4-0.4-1.1-0.3-1.5,0.1l-2.9,3.3c-0.4,0.4-0.3,1.1,0.1,1.5l3.2,2.8c0.4,0.4,1.1,0.3,1.5-0.1L288.3,119.8z M317.3,115.5
	c-0.3-0.3-0.7-0.3-1-0.1l-3.7,3.2c-0.3,0.3-0.3,0.7-0.1,1l3.1,3.7c0.3,0.3,0.7,0.3,1,0.1l3.7-3.2c0.3-0.3,0.3-0.7,0.1-1L317.3,115.5
	z M272.5,121.2c0.2-0.3,0.1-0.7-0.2-0.9l-4.1-2.7c-0.3-0.2-0.7-0.1-0.9,0.2l-2.7,4.1c-0.2,0.3-0.1,0.7,0.2,0.9l4.1,2.7
	c0.3,0.2,0.7,0.1,0.9-0.2L272.5,121.2z M333.8,117.9c-0.3-0.5-0.9-0.6-1.4-0.3l-3.5,2.4c-0.5,0.3-0.6,0.9-0.3,1.4l2.4,3.6
	c0.3,0.5,0.9,0.6,1.4,0.3l3.5-2.4c0.5-0.3,0.6-0.9,0.3-1.4L333.8,117.9z M253.2,128.6c0.5,0.3,1.2,0.1,1.5-0.4l2.1-3.6
	c0.3-0.5,0.1-1.2-0.5-1.5l-3.8-1.9c-0.5-0.3-1.2-0.1-1.5,0.4l-1.9,3.5c-0.3,0.5-0.1,1.2,0.4,1.5L253.2,128.6z M349.7,121.5
	c-0.3-0.5-1-0.7-1.5-0.4l-3.6,2.1c-0.5,0.3-0.7,1-0.4,1.5l2,3.5c0.3,0.5,1,0.7,1.5,0.4l3.6-2.1c0.5-0.3,0.7-1,0.4-1.5L349.7,121.5z
	 M365.3,126.3c-0.3-0.6-1-0.8-1.6-0.5l-3.7,1.8c-0.6,0.3-0.8,1-0.5,1.6l1.8,3.6c0.3,0.6,1,0.8,1.6,0.5l3.7-1.8
	c0.6-0.3,0.8-1,0.5-1.6L365.3,126.3z M241.4,129.2c0.3-0.5,0-1.1-0.5-1.4l-3.7-1.8c-0.5-0.3-1.1,0-1.4,0.5l-1.8,3.7
	c-0.3,0.5,0,1.1,0.5,1.4l3.7,1.8c0.5,0.3,1.1,0,1.4-0.5L241.4,129.2z M127.3,272.4c-1.9,13.1-2.6,25.3-1.9,36.6
	c6.4,116.3,121.5,192.6,231.9,155.8c33.4-11.5,60.9-31.1,82.5-58.8c22.2-28.6,34.5-62.6,36-99c2.8-64.5-31.6-124.1-86.7-156.4
	c-48.1-28.2-109.1-31.3-160.1-8.6c-4.1,1.9-8.7,4.3-13,6.5c-3.8,1.9-7,3.7-9.5,5.3C164.3,180.9,136,222.7,127.3,272.4z M380.4,132.5
	c-0.2-0.4-0.6-0.7-1.1-0.5l-4.4,1.6c-0.4,0.2-0.7,0.6-0.5,1.1l1.5,4.3c0.2,0.4,0.6,0.7,1.1,0.5l4.4-1.6c0.4-0.2,0.7-0.6,0.5-1.1
	L380.4,132.5z M219.2,136.6c-0.2,0.6,0.1,1.2,0.7,1.4l3.9,1.2c0.5,0.2,1.1-0.1,1.3-0.6l1.6-3.6c0.2-0.6,0-1.2-0.6-1.5l-4.1-1.5
	c-0.6-0.2-1.2,0.1-1.4,0.6L219.2,136.6z M394.8,140.1c-0.1-0.5-0.7-0.8-1.2-0.7l-4.2,1.1c-0.5,0.1-0.8,0.7-0.7,1.2l1.1,4.2
	c0.1,0.5,0.7,0.8,1.2,0.7l4.2-1.1c0.5-0.1,0.8-0.7,0.7-1.2L394.8,140.1z M212.2,141.6c0.1-0.5-0.2-0.9-0.6-1.1l-4.4-1.1
	c-0.5-0.1-0.9,0.2-1.1,0.6l-1.1,4.5c-0.1,0.5,0.2,0.9,0.6,1.1l4.4,1.1c0.5,0.1,0.9-0.2,1.1-0.6L212.2,141.6z M198.6,149.8
	c0.1-0.5-0.2-0.9-0.7-1l-4.5-0.8c-0.5-0.1-0.9,0.2-1,0.7l-0.8,4.6c-0.1,0.5,0.2,0.9,0.7,1l4.5,0.8c0.5,0.1,0.9-0.2,1-0.7
	L198.6,149.8z M408.7,154c0.4-0.1,0.7-0.5,0.6-0.9l-0.6-4.3c-0.1-0.4-0.5-0.8-0.9-0.7l-4.8,0.6c-0.5,0.1-0.8,0.5-0.7,0.9l0.8,4.7
	c0.1,0.5,0.5,0.8,1,0.7L408.7,154z M185.9,159.1c0-0.4-0.2-0.7-0.6-0.7l-5.1-0.5c-0.4,0-0.7,0.2-0.7,0.6l-0.5,4.8
	c0,0.4,0.2,0.7,0.6,0.7l5.1,0.5c0.4,0,0.7-0.2,0.7-0.6L185.9,159.1z M421,163.8c0.3-0.1,0.6-0.4,0.6-0.7l-0.2-4.4
	c0-0.4-0.4-0.7-0.8-0.7l-4.8,0.1c-0.4,0-0.8,0.4-0.7,0.8l0.6,5.2c0.1,0.4,0.5,0.7,0.9,0.6L421,163.8z M173.9,169.8
	c0-0.5-0.4-0.9-0.9-0.9l-4.7,0c-0.5,0-0.9,0.4-0.9,0.9l0,4.4c0,0.5,0.4,0.9,0.9,0.9l4.7,0c0.5,0,0.9-0.4,0.9-0.9L173.9,169.8z
	 M433.5,169.5c0-0.4-0.3-0.6-0.7-0.6l-4.9,0c-0.4,0-0.6,0.3-0.6,0.7l0,4.8c0,0.4,0.3,0.6,0.7,0.6l4.9,0c0.4,0,0.6-0.3,0.6-0.7
	L433.5,169.5z M162.4,186.3c0.4-0.1,0.7-0.4,0.7-0.8l-0.2-4.6c0-0.5-0.4-0.8-0.9-0.8l-4.8,0.6c-0.4,0.1-0.7,0.4-0.7,0.9l0.4,4.8
	c0,0.5,0.5,0.8,0.9,0.7L162.4,186.3z M444.7,182c0.1-0.6-0.3-1.2-0.9-1.2l-4.4-0.5c-0.6-0.1-1,0.3-1.1,0.9l-0.4,4.4
	c-0.1,0.6,0.4,1.1,1,1.1l4,0c0.5,0,0.9-0.3,1-0.8L444.7,182z M152.7,193.3c-0.1-0.4-0.4-0.6-0.8-0.6l-4.8,0.8
	c-0.4,0.1-0.6,0.4-0.6,0.8l0.8,4.8c0.1,0.4,0.4,0.6,0.8,0.6l4.8-0.8c0.4-0.1,0.6-0.4,0.6-0.8L152.7,193.3z M454.5,194.3
	c0.1-0.5-0.3-0.9-0.7-1l-4.7-0.7c-0.5-0.1-0.9,0.3-1,0.7l-0.6,4.5c-0.1,0.5,0.3,0.9,0.7,1l4.7,0.7c0.5,0.1,0.9-0.3,1-0.7
	L454.5,194.3z M463.2,208.2c0.2-0.5-0.1-1.1-0.7-1.2l-4.2-1.2c-0.5-0.2-1.1,0.1-1.2,0.7l-1.2,4.2c-0.2,0.5,0.1,1.1,0.7,1.2l4.2,1.2
	c0.5,0.2,1.1-0.1,1.2-0.7L463.2,208.2z M144,206.4c-0.1-0.3-0.4-0.5-0.8-0.5l-4.9,1.2c-0.3,0.1-0.5,0.4-0.5,0.8l1.2,4.7
	c0.1,0.3,0.4,0.5,0.8,0.5l4.9-1.2c0.3-0.1,0.5-0.4,0.5-0.8L144,206.4z M136.1,220.4c-0.2-0.4-0.6-0.6-1.1-0.5l-4.2,1.6
	c-0.4,0.2-0.6,0.6-0.5,1.1l1.7,4.4c0.2,0.4,0.6,0.6,1.1,0.5l4.2-1.6c0.4-0.2,0.6-0.6,0.5-1.1L136.1,220.4z M470.7,222.5
	c0.1-0.4-0.1-0.9-0.5-1l-4.5-1.5c-0.4-0.1-0.9,0.1-1,0.5l-1.4,4.3c-0.1,0.4,0.1,0.9,0.5,1l4.5,1.5c0.4,0.1,0.9-0.1,1-0.5
	L470.7,222.5z M476.9,237.6c0.2-0.4,0-0.9-0.4-1.1l-4.1-1.9c-0.4-0.2-0.9,0-1.1,0.4l-2,4.2c-0.2,0.4,0,0.9,0.4,1.1l4.1,1.9
	c0.4,0.2,0.9,0,1.1-0.4L476.9,237.6z M129.8,235c-0.2-0.4-0.6-0.6-1-0.4l-4.3,2c-0.4,0.2-0.6,0.6-0.4,1l1.9,4.1
	c0.2,0.4,0.6,0.6,1,0.4l4.3-2c0.4-0.2,0.6-0.6,0.4-1L129.8,235z M124.6,250c-0.3-0.4-0.8-0.6-1.3-0.3l-3.7,2.2
	c-0.4,0.3-0.6,0.8-0.3,1.3l2.2,3.7c0.3,0.4,0.8,0.6,1.3,0.3l3.7-2.2c0.4-0.3,0.6-0.8,0.3-1.3L124.6,250z M474.1,253.1
	c-0.5,0.7-0.3,1.7,0.5,2.1l3.3,1.8c0.7,0.4,1.5,0.1,2-0.5l1.7-3c0.4-0.7,0.1-1.6-0.6-2l-3.1-1.6c-0.6-0.3-1.4-0.1-1.8,0.4
	L474.1,253.1z M485.3,269c0.3-0.5,0.2-1.1-0.3-1.4l-3.6-2.5c-0.5-0.3-1.1-0.2-1.4,0.3l-2.5,3.6c-0.3,0.5-0.2,1.1,0.3,1.4l3.6,2.5
	c0.5,0.3,1.1,0.2,1.4-0.3L485.3,269z M120.8,265.2c-0.2-0.3-0.7-0.4-1-0.2l-4,2.9c-0.3,0.2-0.4,0.7-0.2,1l2.8,3.9
	c0.2,0.3,0.7,0.4,1,0.2l4-2.9c0.3-0.2,0.4-0.7,0.2-1L120.8,265.2z M113.5,284.2c-0.2,0.2-0.2,0.5,0,0.7l3.5,3.7
	c0.2,0.2,0.4,0.2,0.6,0l3.9-3.3c0.2-0.2,0.2-0.5,0.1-0.7l-3.5-4.2c-0.2-0.2-0.5-0.2-0.7,0L113.5,284.2z M483.9,280.7
	c-0.4-0.4-1.1-0.3-1.5,0.1l-2.6,3.2c-0.3,0.4-0.3,1,0.1,1.4l3,2.9c0.4,0.4,1.1,0.4,1.5,0l3-3.3c0.4-0.4,0.3-1.1-0.1-1.5L483.9,280.7
	z M484.8,296.7c-0.3-0.3-0.8-0.3-1.2,0l-3.3,3.3c-0.3,0.3-0.3,0.8,0,1.2l3.3,3.3c0.3,0.3,0.8,0.3,1.2,0l3.3-3.3
	c0.3-0.3,0.3-0.8,0-1.2L484.8,296.7z M113.1,299.8c-0.3,0.3-0.3,0.7-0.1,1l3.2,3.6c0.3,0.3,0.8,0.3,1.1,0l3.2-3.6
	c0.3-0.3,0.2-0.7,0-1l-3.1-3.1c-0.3-0.3-0.7-0.3-1,0L113.1,299.8z M118.3,312.6c-0.6-0.7-1.6-0.6-2.1,0.1l-2.3,3.1
	c-0.4,0.6-0.3,1.4,0.2,1.8l2.6,2.3c0.6,0.5,1.4,0.5,1.9-0.1l2.3-2.5c0.5-0.5,0.5-1.3,0-1.8L118.3,312.6z M484.4,312.6
	c-0.3-0.4-0.8-0.4-1.2-0.1l-3.5,3c-0.4,0.3-0.4,0.8-0.1,1.2l3,3.4c0.3,0.4,0.8,0.4,1.2,0.1l3.5-3c0.4-0.3,0.4-0.8,0.1-1.2
	L484.4,312.6z M123.6,331.9c0.2-0.3,0.1-0.8-0.2-1l-4-2.7c-0.3-0.2-0.8-0.1-1,0.2l-2.7,4c-0.2,0.3-0.1,0.8,0.2,1l4,2.7
	c0.3,0.2,0.8,0.1,1-0.2L123.6,331.9z M482.6,328.3c-0.2-0.3-0.6-0.4-1-0.2l-4,2.7c-0.3,0.2-0.4,0.6-0.2,1l2.6,3.8
	c0.2,0.3,0.6,0.4,1,0.2l4-2.7c0.3-0.2,0.4-0.6,0.2-1L482.6,328.3z M126.9,347.1c0.2-0.4,0.1-0.9-0.3-1.1l-4.1-2.4
	c-0.4-0.2-0.9-0.1-1.1,0.3L119,348c-0.2,0.4-0.1,0.9,0.3,1.1l4.1,2.4c0.4,0.2,0.9,0.1,1.1-0.3L126.9,347.1z M479.6,344.3
	c-0.3-0.5-0.9-0.6-1.4-0.3l-3.6,2.2c-0.5,0.3-0.6,0.9-0.3,1.4l2.1,3.4c0.3,0.5,0.9,0.6,1.4,0.3l3.6-2.2c0.5-0.3,0.6-0.9,0.3-1.4
	L479.6,344.3z M131.8,361.9c0.2-0.4,0-0.9-0.4-1.1l-4.4-2c-0.4-0.2-0.9,0-1.1,0.4l-1.9,4.2c-0.2,0.4,0,0.9,0.4,1.1l4.4,2
	c0.4,0.2,0.9,0,1.1-0.4L131.8,361.9z M474.9,359.3c-0.2-0.4-0.7-0.6-1.1-0.4l-4.1,2c-0.4,0.2-0.6,0.7-0.4,1.1l2,4.1
	c0.2,0.4,0.7,0.6,1.1,0.4l4.1-2c0.4-0.2,0.6-0.7,0.4-1.1L474.9,359.3z M137.8,376.3c0.2-0.5-0.1-1.1-0.6-1.3l-4.1-1.5
	c-0.5-0.2-1.1,0.1-1.3,0.6l-1.5,4.1c-0.2,0.5,0.1,1.1,0.6,1.3l4.1,1.5c0.5,0.2,1.1-0.1,1.3-0.6L137.8,376.3z M469.2,374.1
	c-0.1-0.4-0.6-0.6-1-0.5l-4.4,1.5c-0.4,0.1-0.6,0.6-0.5,1l1.5,4.3c0.1,0.4,0.6,0.6,1,0.5l4.4-1.5c0.4-0.1,0.6-0.6,0.5-1L469.2,374.1
	z M145,389.9c0.1-0.5-0.2-1-0.7-1.1l-4.3-1c-0.5-0.1-1,0.2-1.1,0.7l-1,4.4c-0.1,0.5,0.2,1,0.7,1.1l4.3,1c0.5,0.1,1-0.2,1.1-0.7
	L145,389.9z M462,388.4c-0.1-0.4-0.5-0.7-1-0.6l-4.4,1.1c-0.4,0.1-0.7,0.5-0.6,1l1.2,4.6c0.1,0.4,0.5,0.7,1,0.6l4.4-1.1
	c0.4-0.1,0.7-0.5,0.6-1L462,388.4z M153.7,403c0.1-0.5-0.2-0.9-0.7-1l-4.7-0.8c-0.5-0.1-0.9,0.2-1,0.7l-0.8,4.6
	c-0.1,0.5,0.2,0.9,0.7,1l4.7,0.8c0.5,0.1,0.9-0.2,1-0.7L153.7,403z M453.7,401.9c-0.1-0.4-0.5-0.7-0.9-0.7l-4.7,0.9
	c-0.4,0.1-0.7,0.5-0.7,0.9l0.8,4.5c0.1,0.4,0.5,0.7,0.9,0.7l4.7-0.9c0.4-0.1,0.7-0.5,0.7-0.9L453.7,401.9z M163.1,415.4
	c0-0.4-0.3-0.8-0.7-0.8l-4.4-0.5c-0.4,0-0.9,0.3-0.9,0.7l-0.5,4.5c-0.1,0.4,0.3,0.8,0.7,0.9l4.8,0.7c0.5,0.1,0.9-0.3,0.9-0.8
	L163.1,415.4z M444,414.7c0-0.3-0.3-0.6-0.6-0.5l-4.9,0.4c-0.3,0-0.6,0.3-0.5,0.6l0.4,4.8c0,0.3,0.3,0.6,0.6,0.5l4.9-0.4
	c0.3,0,0.6-0.3,0.5-0.6L444,414.7z M173.8,426.7c0-0.4-0.3-0.7-0.7-0.7l-5,0c-0.4,0-0.7,0.3-0.7,0.7l0,4.9c0,0.4,0.3,0.7,0.7,0.7
	l5,0c0.4,0,0.7-0.3,0.7-0.7L173.8,426.7z M433.4,427c0-0.4-0.3-0.7-0.6-0.7l-4.6-0.4c-0.4,0-0.8,0.3-0.8,0.7l-0.1,4.9
	c0,0.4,0.3,0.7,0.7,0.7l4.5-0.1c0.4,0,0.7-0.3,0.7-0.7L433.4,427z M185.2,437c0-0.3-0.3-0.5-0.5-0.5l-5.1,0.4
	c-0.3,0-0.5,0.3-0.5,0.5l0.4,5c0,0.3,0.3,0.5,0.5,0.5l5.1-0.4c0.3,0,0.5-0.3,0.5-0.5L185.2,437z M421.9,437.9c0-0.5-0.3-0.9-0.8-1
	l-4.5-0.4c-0.5,0-0.9,0.3-1,0.8l-0.5,4.6c0,0.5,0.3,0.9,0.8,1l4.5,0.4c0.5,0,0.9-0.3,1-0.8L421.9,437.9z M197.9,446.7
	c-0.1-0.4-0.5-0.7-0.9-0.6l-4.7,0.9c-0.4,0.1-0.7,0.5-0.6,0.9l0.8,4.4c0.1,0.4,0.5,0.7,0.9,0.6l4.7-0.9c0.4-0.1,0.7-0.5,0.6-0.9
	L197.9,446.7z M409.3,447.8c0.1-0.4-0.2-0.9-0.6-0.9l-4.5-0.8c-0.4-0.1-0.9,0.2-0.9,0.6l-0.8,4.4c-0.1,0.4,0.2,0.9,0.6,0.9l4.5,0.8
	c0.4,0.1,0.9-0.2,0.9-0.6L409.3,447.8z M211.3,455.2c-0.1-0.6-0.7-0.9-1.3-0.8l-4.1,1.1c-0.6,0.1-0.9,0.7-0.8,1.3l1,4.1
	c0.1,0.6,0.7,0.9,1.3,0.8l4.1-1.1c0.6-0.1,0.9-0.7,0.8-1.3L211.3,455.2z M396,456.6c0.1-0.4-0.1-0.9-0.6-1l-4.6-1.2
	c-0.4-0.1-0.9,0.1-1,0.6l-1.2,4.4c-0.1,0.4,0.1,0.9,0.6,1l4.6,1.2c0.4,0.1,0.9-0.1,1-0.6L396,456.6z M381.9,464.1
	c0.2-0.4-0.1-0.9-0.5-1l-4.4-1.5c-0.4-0.1-0.9,0.1-1,0.5l-1.5,4.4c-0.2,0.4,0.1,0.9,0.5,1l4.4,1.5c0.4,0.1,0.9-0.1,1-0.5
	L381.9,464.1z M224.9,462.1c-0.2-0.5-0.8-0.8-1.4-0.5l-3.9,1.6c-0.5,0.2-0.8,0.8-0.5,1.4l1.6,3.8c0.2,0.5,0.8,0.8,1.4,0.5l3.9-1.6
	c0.5-0.2,0.8-0.8,0.5-1.4L224.9,462.1z M239.5,467.9c-0.2-0.4-0.6-0.5-1-0.3l-4.3,2.1c-0.4,0.2-0.5,0.6-0.3,1l2,4.2
	c0.2,0.4,0.6,0.5,1,0.3l4.3-2.1c0.4-0.2,0.5-0.6,0.3-1L239.5,467.9z M367.2,470.6c0.2-0.4,0-0.9-0.4-1.1l-4.3-1.9
	c-0.4-0.2-0.9,0-1.1,0.4l-1.9,4.3c-0.2,0.4,0,0.9,0.4,1.1l4.3,1.9c0.4,0.2,0.9,0,1.1-0.4L367.2,470.6z M351.9,475.7
	c0.2-0.4,0.1-0.9-0.3-1.2l-4-2.3c-0.4-0.2-0.9-0.1-1.2,0.3l-2.2,4c-0.2,0.4-0.1,0.9,0.3,1.2l4,2.3c0.4,0.2,0.9,0.1,1.2-0.3
	L351.9,475.7z M254.4,472.5c-0.2-0.3-0.6-0.4-0.9-0.2l-4.2,2.5c-0.3,0.2-0.4,0.6-0.2,0.9l2.5,4.1c0.2,0.3,0.6,0.4,0.9,0.2l4.2-2.5
	c0.3-0.2,0.4-0.6,0.2-0.9L254.4,472.5z M270,476c-0.3-0.4-0.9-0.5-1.3-0.2l-3.6,2.5c-0.4,0.3-0.5,0.9-0.2,1.3l2.5,3.6
	c0.3,0.4,0.9,0.5,1.3,0.2l3.6-2.5c0.4-0.3,0.5-0.9,0.2-1.3L270,476z M336.3,479.6c0.3-0.4,0.2-1-0.2-1.3l-3.8-2.6
	c-0.4-0.3-1-0.2-1.3,0.2l-2.6,3.7c-0.3,0.4-0.2,1,0.2,1.3l3.8,2.6c0.4,0.3,1,0.2,1.3-0.2L336.3,479.6z M285.4,477.9
	c-0.3-0.4-0.8-0.4-1.2-0.1l-3.5,3.1c-0.4,0.3-0.4,0.8-0.1,1.2l3,3.5c0.3,0.4,0.8,0.4,1.2,0.1l3.5-3.1c0.4-0.3,0.4-0.8,0.1-1.2
	L285.4,477.9z M320.4,481.9c0.3-0.4,0.3-1-0.1-1.3l-3.4-2.8c-0.4-0.3-1-0.3-1.3,0.1l-2.9,3.5c-0.3,0.4-0.3,1,0.1,1.3l3.4,2.8
	c0.4,0.3,1,0.3,1.3-0.1L320.4,481.9z M301.2,478.4c-0.4-0.4-0.9-0.4-1.3,0l-3.3,3.2c-0.4,0.4-0.4,0.9,0,1.3l3.2,3.3
	c0.4,0.4,0.9,0.4,1.3,0l3.3-3.2c0.4-0.4,0.4-0.9,0-1.3L301.2,478.4z"/>
<path class="st3" d="M296.5,118.2l3.5-3.4c0.3-0.3,0.8-0.3,1.1,0l3.4,3.4c0.3,0.3,0.3,0.8,0,1.1l-3.5,3.4c-0.3,0.3-0.8,0.3-1.1,0
	l-3.4-3.4C296.3,119,296.3,118.5,296.5,118.2z"/>
<path class="st5" d="M285.1,115.5l3.2,2.8c0.4,0.4,0.5,1,0.1,1.5l-2.9,3.3c-0.4,0.4-1,0.5-1.5,0.1l-3.2-2.8c-0.4-0.4-0.5-1-0.1-1.5
	l2.9-3.3C284,115.1,284.6,115.1,285.1,115.5z"/>
<path class="st3" d="M312.7,118.6l3.7-3.2c0.3-0.3,0.7-0.2,1,0.1l3.1,3.7c0.3,0.3,0.2,0.7-0.1,1l-3.7,3.2c-0.3,0.3-0.7,0.2-1-0.1
	l-3.1-3.7C312.3,119.3,312.4,118.9,312.7,118.6z"/>
<path class="st5" d="M268.3,117.5l4.1,2.7c0.3,0.2,0.4,0.6,0.2,0.9l-2.7,4.1c-0.2,0.3-0.6,0.4-0.9,0.2l-4.1-2.7
	c-0.3-0.2-0.4-0.6-0.2-0.9l2.7-4.1C267.6,117.4,268,117.3,268.3,117.5z"/>
<path class="st3" d="M328.8,120l3.5-2.4c0.5-0.3,1.1-0.2,1.4,0.3l2.4,3.6c0.3,0.5,0.2,1.1-0.3,1.4l-3.5,2.4
	c-0.5,0.3-1.1,0.2-1.4-0.3l-2.4-3.6C328.2,121,328.3,120.3,328.8,120z"/>
<path class="st5" d="M253.2,128.6l-3.6-2.1c-0.5-0.3-0.7-1-0.4-1.5l1.9-3.5c0.3-0.5,0.9-0.7,1.5-0.4l3.8,1.9c0.6,0.3,0.8,1,0.5,1.5
	l-2.1,3.6C254.4,128.8,253.7,128.9,253.2,128.6z"/>
<path class="st3" d="M344.6,123.2l3.6-2.1c0.5-0.3,1.2-0.1,1.5,0.4l2,3.5c0.3,0.5,0.1,1.2-0.4,1.5l-3.6,2.1
	c-0.5,0.3-1.2,0.1-1.5-0.4l-2-3.5C343.9,124.2,344.1,123.5,344.6,123.2z"/>
<path class="st3" d="M360.1,127.6l3.7-1.8c0.6-0.3,1.3,0,1.6,0.5l1.8,3.6c0.3,0.6,0,1.3-0.5,1.6l-3.7,1.8c-0.6,0.3-1.3,0-1.6-0.5
	l-1.8-3.6C359.2,128.6,359.5,127.9,360.1,127.6z"/>
<path class="st5" d="M237.1,126l3.7,1.8c0.5,0.3,0.7,0.9,0.5,1.4l-1.8,3.7c-0.3,0.5-0.9,0.7-1.4,0.5l-3.7-1.8
	c-0.5-0.3-0.7-0.9-0.5-1.4l1.8-3.7C236,126,236.6,125.8,237.1,126z"/>
<path class="st3" d="M374.9,133.5l4.4-1.6c0.4-0.2,0.9,0.1,1.1,0.5l1.5,4.3c0.2,0.4-0.1,0.9-0.5,1.1l-4.4,1.6
	c-0.4,0.2-0.9-0.1-1.1-0.5l-1.5-4.3C374.2,134.2,374.4,133.7,374.9,133.5z"/>
<path class="st5" d="M219.2,136.6l1.5-3.8c0.2-0.6,0.8-0.8,1.4-0.6l4.1,1.5c0.6,0.2,0.9,0.9,0.6,1.5l-1.6,3.6
	c-0.2,0.5-0.8,0.8-1.3,0.6l-3.9-1.2C219.3,137.8,219,137.2,219.2,136.6z"/>
<path class="st5" d="M389.4,140.6l4.2-1.1c0.5-0.1,1,0.2,1.2,0.7l1.1,4.2c0.1,0.5-0.2,1-0.7,1.2l-4.2,1.1c-0.5,0.1-1-0.2-1.2-0.7
	l-1.1-4.2C388.6,141.2,388.9,140.7,389.4,140.6z"/>
<path class="st5" d="M207.2,139.5l4.4,1.1c0.5,0.1,0.8,0.6,0.6,1.1l-1.1,4.5c-0.1,0.5-0.6,0.8-1.1,0.6l-4.4-1.1
	c-0.5-0.1-0.8-0.6-0.6-1.1l1.1-4.5C206.2,139.6,206.7,139.3,207.2,139.5z"/>
<path class="st5" d="M193.4,148.1l4.5,0.8c0.5,0.1,0.8,0.5,0.7,1l-0.8,4.6c-0.1,0.5-0.5,0.8-1,0.7l-4.5-0.8c-0.5-0.1-0.8-0.5-0.7-1
	l0.8-4.6C192.5,148.3,192.9,148,193.4,148.1z"/>
<path class="st5" d="M408.7,154l-4.5,1c-0.5,0.1-0.9-0.2-1-0.7l-0.8-4.7c-0.1-0.5,0.2-0.9,0.7-0.9l4.8-0.6c0.5-0.1,0.9,0.3,0.9,0.7
	l0.6,4.3C409.4,153.5,409.1,153.9,408.7,154z"/>
<path class="st5" d="M180.2,157.9l5.1,0.5c0.4,0,0.6,0.3,0.6,0.7l-0.5,4.8c0,0.4-0.3,0.6-0.7,0.6l-5.1-0.5c-0.4,0-0.6-0.3-0.6-0.7
	l0.5-4.8C179.6,158.1,179.9,157.8,180.2,157.9z"/>
<path class="st5" d="M421,163.8l-4.4,0.9c-0.4,0.1-0.8-0.2-0.9-0.6l-0.6-5.2c-0.1-0.4,0.3-0.8,0.7-0.8l4.8-0.1
	c0.4,0,0.7,0.3,0.8,0.7l0.2,4.4C421.6,163.4,421.4,163.8,421,163.8z"/>
<path class="st5" d="M168.3,168.8l4.7,0c0.5,0,0.9,0.4,0.9,0.9l0,4.4c0,0.5-0.4,0.9-0.9,0.9l-4.7,0c-0.5,0-0.9-0.4-0.9-0.9l0-4.4
	C167.4,169.3,167.8,168.8,168.3,168.8z"/>
<path class="st5" d="M427.9,168.9l4.9,0c0.4,0,0.7,0.3,0.7,0.6l0,4.8c0,0.4-0.3,0.7-0.6,0.7l-4.9,0c-0.4,0-0.7-0.3-0.7-0.6l0-4.8
	C427.3,169.2,427.5,168.9,427.9,168.9z"/>
<path class="st5" d="M162.4,186.3l-4.6,0.7c-0.5,0.1-0.9-0.2-0.9-0.7l-0.4-4.8c0-0.4,0.3-0.8,0.7-0.9l4.8-0.6
	c0.5-0.1,0.9,0.3,0.9,0.8l0.2,4.6C163.1,185.9,162.8,186.3,162.4,186.3z"/>
<path class="st5" d="M444.7,182l-0.9,3.9c-0.1,0.5-0.5,0.8-1,0.8l-4,0c-0.6,0-1.1-0.5-1-1.1l0.4-4.4c0.1-0.6,0.5-1,1.1-0.9l4.4,0.5
	C444.4,180.8,444.8,181.4,444.7,182z"/>
<path class="st5" d="M147.1,193.5l4.8-0.8c0.4-0.1,0.7,0.2,0.8,0.6l0.8,4.8c0.1,0.4-0.2,0.7-0.6,0.8l-4.8,0.8
	c-0.4,0.1-0.7-0.2-0.8-0.6l-0.8-4.8C146.5,193.9,146.7,193.6,147.1,193.5z"/>
<path class="st5" d="M449.1,192.7l4.7,0.7c0.5,0.1,0.8,0.5,0.7,1l-0.6,4.5c-0.1,0.5-0.5,0.8-1,0.7l-4.7-0.7c-0.5-0.1-0.8-0.5-0.7-1
	l0.6-4.5C448.2,193,448.6,192.7,449.1,192.7z"/>
<path class="st5" d="M458.3,205.8l4.2,1.2c0.5,0.2,0.8,0.7,0.7,1.2l-1.2,4.2c-0.2,0.5-0.7,0.8-1.2,0.7l-4.2-1.2
	c-0.5-0.2-0.8-0.7-0.7-1.2l1.2-4.2C457.3,205.9,457.8,205.6,458.3,205.8z"/>
<path class="st5" d="M138.3,207.2l4.9-1.2c0.3-0.1,0.7,0.1,0.8,0.5l1.2,4.7c0.1,0.3-0.1,0.7-0.5,0.8l-4.9,1.2
	c-0.3,0.1-0.7-0.1-0.8-0.5l-1.2-4.7C137.7,207.7,137.9,207.3,138.3,207.2z"/>
<path class="st5" d="M130.8,221.6l4.2-1.6c0.4-0.2,0.9,0,1.1,0.5l1.7,4.4c0.2,0.4,0,0.9-0.5,1.1l-4.2,1.6c-0.4,0.2-0.9,0-1.1-0.5
	l-1.7-4.4C130.2,222.2,130.4,221.7,130.8,221.6z"/>
<path class="st5" d="M465.7,220l4.5,1.5c0.4,0.1,0.6,0.6,0.5,1l-1.4,4.3c-0.1,0.4-0.6,0.6-1,0.5l-4.5-1.5c-0.4-0.1-0.6-0.6-0.5-1
	l1.4-4.3C464.8,220,465.3,219.8,465.7,220z"/>
<path class="st5" d="M472.4,234.5l4.1,1.9c0.4,0.2,0.6,0.7,0.4,1.1l-2,4.2c-0.2,0.4-0.7,0.6-1.1,0.4l-4.1-1.9
	c-0.4-0.2-0.6-0.7-0.4-1.1l2-4.2C471.5,234.4,472,234.3,472.4,234.5z"/>
<path class="st5" d="M124.5,236.6l4.3-2c0.4-0.2,0.9,0,1,0.4l1.9,4.1c0.2,0.4,0,0.9-0.4,1l-4.3,2c-0.4,0.2-0.9,0-1-0.4l-1.9-4.1
	C123.9,237.3,124.1,236.8,124.5,236.6z"/>
<path class="st5" d="M349.8,281.1l-14,0.1c-0.3,0-0.6,0.2-0.8,0.5c-1.3,2.9-2.5,5.8-3.4,8.7c-0.9,2.9,0.6,4.2,3.2,4.8
	c0.4,0.1,0.6,0.4,0.6,0.8c0,0.4-0.4,0.7-0.8,0.7l-12.5-0.1c-0.4,0-0.6-0.6-0.2-0.8c2.3-1.3,3.8-2,4.8-4.6c5.6-14,11-27.5,16.2-40.7
	c1-2.5,4.5-2.6,5.6-0.1c5.5,12.8,10.9,25.8,16.3,39.1c1.3,3.2,2.5,4.9,5.5,6.1c0.6,0.2,0.4,1.1-0.2,1.1l-20.4,0.1
	c-0.6,0-0.8-0.8-0.2-1l4.1-2c0.1-0.1,0.2-0.2,0.3-0.3c0.4-0.8,0.3-1.6-0.1-2.6c-0.6-1.4-1.8-4.5-3.5-9.3
	C350.3,281.2,350.1,281.1,349.8,281.1z M349.2,278l2.2,0.2c0.3,0,0.6-0.1,0.8-0.4c0.3-0.4,0.8-0.6,1.5-0.6c1.1,0,1.6-1.4,0.7-2
	c-0.9-0.6-1.9-0.9-3.1-0.9c-0.4,0-0.7,0-1.1-0.2c-1.4-0.7-2.2-0.7-2.7-0.1l-5.1-13.1c-0.1-0.2-0.2-0.3-0.4-0.2
	c-0.2,0-0.3,0.2-0.3,0.4c0.1,1.3,0.1,2.2-0.4,3.5c-1.7,4.3-3.3,8.6-4.9,13c-0.1,0.4,0,0.5,0.4,0.5L349.2,278z"/>
<path class="st5" d="M119.6,251.9l3.7-2.2c0.4-0.3,1-0.1,1.3,0.3l2.2,3.7c0.3,0.4,0.1,1-0.3,1.3l-3.7,2.2c-0.4,0.3-1,0.1-1.3-0.3
	l-2.2-3.7C119,252.8,119.2,252.2,119.6,251.9z"/>
<path class="st5" d="M188.6,251.8c-0.8-0.5-1.8-0.8-2.8-0.9c-0.4,0-0.6-0.3-0.7-0.9c0-0.3,0.2-0.5,0.5-0.5c6,0,12,0,17.9,0.2
	c0.5,0,0.8,0.1,1.1,0.3c0.3,0.2,0.2,0.7-0.2,0.8c-2.9,0.3-4.4,1.9-4.4,4.7c0.1,11.8,0.1,23.5,0.1,35.2c0,1.3,0.2,2.4,0.6,3.3
	c0.1,0.3,0.4,0.5,0.7,0.6l3.2,1.1c0.2,0.1,0.4,0.3,0.3,0.6c0,0.2-0.3,0.4-0.5,0.4l-19.3,0c-0.4,0-0.7-0.5-0.4-0.8l0.2-0.3
	c0.2-0.2,0.4-0.4,0.7-0.4c2.1-0.2,3.3-1.2,3.3-3.4c0.2-13.1,0.2-26.1,0-39.1C189.1,252.3,188.9,252,188.6,251.8z"/>
<path class="st5" d="M299.3,276.9l0,15.6c0,0.4,0.2,0.7,0.6,0.9l5,2.2c0.6,0.3,0.4,1.2-0.2,1.2h-20.4c-0.7,0-1-0.9-0.5-1.3
	c1-0.8,2.4-0.5,3.4-1.6c0.5-0.5,0.7-1.3,0.7-2.4c0.2-12.7,0.2-25.4,0.1-38c0-0.6-0.4-1.2-1-1.5l-3.1-1.3c-0.4-0.2-0.3-0.8,0.1-0.8
	c7.9-0.3,15.7-0.4,23.5-0.2c7.6,0.2,14.6,0.9,16.5,8.8c1,4.3,0.4,8.2-2,11.8c-4.7,7.1-15.4,6.2-22.4,6.1
	C299.5,276.3,299.3,276.5,299.3,276.9z M299.1,253.2l-0.1,19.2c0,0.4,0.3,0.7,0.7,0.7l5,0c4.5,0,8.1-3.7,8.1-8.2l0-4
	c0-4.6-3.6-8.3-8.1-8.3l-5,0C299.5,252.6,299.1,252.9,299.1,253.2z"/>
<path class="st5" d="M474.1,253.1l2-2.8c0.4-0.6,1.2-0.8,1.8-0.4l3.1,1.6c0.7,0.4,1,1.3,0.6,2l-1.7,3c-0.4,0.7-1.3,0.9-2,0.5
	l-3.3-1.8C473.9,254.8,473.6,253.8,474.1,253.1z"/>
<path class="st5" d="M481.5,265l3.6,2.5c0.5,0.3,0.6,1,0.3,1.4l-2.5,3.6c-0.3,0.5-1,0.6-1.4,0.3l-3.6-2.5c-0.5-0.3-0.6-1-0.3-1.4
	l2.5-3.6C480.4,264.8,481,264.7,481.5,265z"/>
<path class="st5" d="M115.8,267.9l4-2.9c0.3-0.2,0.8-0.2,1,0.2l2.8,3.9c0.2,0.3,0.2,0.8-0.2,1l-4,2.9c-0.3,0.2-0.8,0.2-1-0.2
	l-2.8-3.9C115.4,268.6,115.5,268.2,115.8,267.9z"/>
<path class="st5" d="M134.6,268.8c-6.8,37.1-2.2,71.9,13.8,104.6c15.1,30.8,38,55,68.5,72.4c4.2,2.4,9.9,5,14.9,7.4
	c2.2,1.1,4.3,2,6.1,2.7c36.7,13.9,74.1,15.4,112.2,4.5l6.8,2.2c0.4,0.1,0.5,0.3,0.5,0.7l-0.1,1.5C246.9,501.6,131.7,425.3,125.3,309
	c-0.6-11.3,0-23.4,1.9-36.6l0.9-0.8c0.3-0.2,0.6-0.2,0.9-0.1c0.7,0.5,1.4,0.6,2.2,0.2c0.3-0.1,0.5-0.4,0.5-0.8 M130.3,280.2
	c0.6,0.3,1.2-0.4,0.9-1c-0.5-1-0.7-2-0.5-3c0.1-0.5-0.2-1.1-0.8-1.2c-0.5-0.1-1.1,0.2-1.3,0.7C127.8,277.9,128.4,279.4,130.3,280.2z
	"/>
<path class="st5" d="M349.2,278l-1.6-3.9c0.4-0.6,1.3-0.6,2.7,0.1c0.3,0.2,0.7,0.2,1.1,0.2c1.1,0,2.2,0.2,3.1,0.9
	c0.9,0.6,0.4,2-0.7,2c-0.7,0-1.2,0.2-1.5,0.6c-0.2,0.3-0.5,0.4-0.8,0.4L349.2,278z"/>
<path class="st5" d="M130.3,280.2c-1.9-0.9-2.5-2.4-1.7-4.5c0.2-0.5,0.7-0.8,1.3-0.7c0.5,0.1,0.9,0.7,0.8,1.2c-0.2,1.1,0,2.1,0.5,3
	C131.5,279.9,130.9,280.5,130.3,280.2z"/>
<path class="st5" d="M113.5,284.2l3.9-3.8c0.2-0.2,0.5-0.2,0.7,0l3.5,4.2c0.2,0.2,0.1,0.5-0.1,0.7l-3.9,3.3c-0.2,0.2-0.5,0.1-0.6,0
	l-3.5-3.7C113.3,284.6,113.3,284.4,113.5,284.2z"/>
<path class="st5" d="M483.9,280.7l3.4,2.8c0.5,0.4,0.5,1.1,0.1,1.5l-3,3.3c-0.4,0.4-1.1,0.4-1.5,0l-3-2.9c-0.4-0.4-0.4-1-0.1-1.4
	l2.6-3.2C482.8,280.4,483.4,280.4,483.9,280.7z"/>
<path class="st5" d="M480.3,300l3.3-3.3c0.3-0.3,0.8-0.3,1.2,0l3.3,3.3c0.3,0.3,0.3,0.8,0,1.2l-3.3,3.3c-0.3,0.3-0.8,0.3-1.2,0
	l-3.3-3.3C480,300.8,480,300.3,480.3,300z"/>
<path class="st5" d="M113.1,299.8l3.3-3c0.3-0.3,0.7-0.3,1,0l3.1,3.1c0.3,0.3,0.3,0.7,0,1l-3.2,3.6c-0.3,0.3-0.8,0.3-1.1,0l-3.2-3.6
	C112.8,300.5,112.8,300.1,113.1,299.8z"/>
<path class="st5" d="M118.3,312.6l2.5,2.9c0.4,0.5,0.4,1.3,0,1.8l-2.3,2.5c-0.5,0.6-1.4,0.6-1.9,0.1l-2.6-2.3
	c-0.5-0.5-0.6-1.3-0.2-1.8l2.3-3.1C116.7,312,117.8,312,118.3,312.6z"/>
<path class="st5" d="M479.7,315.5l3.5-3c0.4-0.3,0.9-0.3,1.2,0.1l3,3.4c0.3,0.4,0.3,0.9-0.1,1.2l-3.5,3c-0.4,0.3-0.9,0.3-1.2-0.1
	l-3-3.4C479.3,316.3,479.3,315.8,479.7,315.5z"/>
<path class="st5" d="M300,322.1c-2.9,0.1-5.8,2-8.8,2.6c-4.8,0.9-9.7-3.9-14.1-2.2c-2.8,1.1-5.6,1.9-8.5,2.5
	c-0.3,0.1-0.6-0.2-0.6-0.5l0-1.3c0-0.4,0.2-0.5,0.5-0.6c5.9-1.2,10-4,16.1-1.5c1.9,0.8,3.4,1.2,4.3,1.2c6.1,0.1,9.7-3.9,16.2-1.4
	c4.5,1.7,7,2,11.2,0.4c6.3-2.5,9.9-0.1,15.3,1.6c0.6,0.2,0.9,0.9,0.7,1.4c-0.1,0.2-0.3,0.4-0.6,0.5c-0.2,0.1-0.4,0.1-0.7,0
	c-3-0.9-5.9-1.8-8.9-2.8c-0.3-0.1-0.7-0.1-1,0c-2.7,1-5.4,1.8-8.1,2.6C308.2,325.9,304.7,321.9,300,322.1z"/>
<path class="st5" d="M119.4,328.1l4,2.7c0.3,0.2,0.4,0.7,0.2,1l-2.7,4c-0.2,0.3-0.7,0.4-1,0.2l-4-2.7c-0.3-0.2-0.4-0.7-0.2-1l2.7-4
	C118.6,328,119.1,327.9,119.4,328.1z"/>
<path class="st5" d="M477.7,330.9l4-2.7c0.3-0.2,0.7-0.1,1,0.2l2.6,3.8c0.2,0.3,0.1,0.7-0.2,1l-4,2.7c-0.3,0.2-0.7,0.1-1-0.2
	l-2.6-3.8C477.3,331.5,477.4,331.1,477.7,330.9z"/>
<path class="st3" d="M111.5,334.2c3,15.7,7.7,30.9,14.3,45.4c0.5,1.2,0.6,2.1,1.3,3.2c1.9,2.8,3.1,6.3,4.6,8.9
	c9.2,15.8,19.4,29.3,30.5,40.8c30.2,31,71.4,51.8,114.9,56.6c45.5,5.1,87.6-4.3,126.4-28.1c7.9-4.8,15.5-11,22.9-17
	c2.1,0.2,3.9-0.3,5.5-1.4c0.6-0.5,1.5,0,1.4,0.8l-0.3,3.5c-25.6,22.8-54.4,37.8-86.3,44.9c-69,15.5-138.1-3.8-187.9-53.5
	c-2.6-2.6-6.3-6.7-11-12.2c-3.9-4.6-7.3-8.9-10.1-12.9c-15.8-22.6-26.5-46.8-32-74c0.7-0.9,1.6-1.1,2.8-0.6c0.3,0.1,0.5,0.3,0.5,0.7
	l0,1c0,0.4,0.1,0.4,0.2,0.1c0.4-0.9,0.3-1.7-0.3-2.4c-0.1-0.1-0.2-0.3-0.1-0.5C109.4,336.1,110.3,335.1,111.5,334.2z"/>
<path class="st5" d="M122.5,343.6l4.1,2.4c0.4,0.2,0.5,0.7,0.3,1.1l-2.3,4.1c-0.2,0.4-0.7,0.5-1.1,0.3l-4.1-2.4
	c-0.4-0.2-0.5-0.7-0.3-1.1l2.3-4.1C121.6,343.5,122.1,343.4,122.5,343.6z"/>
<path class="st5" d="M474.5,346.2l3.6-2.2c0.5-0.3,1.1-0.1,1.4,0.3l2.1,3.4c0.3,0.5,0.1,1.1-0.3,1.4l-3.6,2.2
	c-0.5,0.3-1.1,0.1-1.4-0.3l-2.1-3.4C473.9,347.1,474.1,346.5,474.5,346.2z"/>
<path class="st3" d="M286.5,365.2c0.5-0.9,0-2-0.8-2.7c-3.4-3-6.7-6.2-9.7-9.6c-0.8-0.9-0.1-2.2,1.1-2.1c1.3,0.2,2.2,1.3,3.2,2.2
	c4,3.8,7.9,7.7,11.8,11.6c2.2,2.2,2.5,4.3,2.2,7.2c0,0.4,0.1,0.7,0.3,0.9l6.5,6.6c0.4,0.4,1,0.4,1.4,0c9.2-9.3,18.6-18.5,28-27.5
	c0.4-0.4,0.6-0.5,0.8-0.5c1.1,0.3,1.8,1.5,1.3,2.6c-5.1,11.4-12.9,20-20.6,29.6c-0.3,0.3-0.8,0.4-1.1,0.1l-2.2-2.2
	c-0.3-0.3-0.6-0.3-0.9,0l-2,1.8c-0.2,0.2-0.2,0.6,0,0.8c7,6.9,14,13.8,21,20.7c3,3,0,7.1-3.2,4c-7.2-7-14.3-14.1-21.4-21.1
	c-0.3-0.3-0.5-0.3-0.8,0c-6.5,6.5-13,13-19.4,19.4c-1.3,1.3-2.7,1.5-4.2,0.4c-1-0.8-1.1-2.3-0.2-3.2l19.8-19.6c0.6-0.6,0.6-1.5,0-2
	l-6.4-6.1c-0.3-0.3-0.6-0.4-1-0.3c-3,0.4-5.8-0.6-8.4-3.2c-4.1-4-8.2-8.2-12.4-12.5c-0.7-0.8-0.3-2,0.7-2.3c0.9-0.2,1.8,0.2,2.6,1.1
	c2.7,3,5.4,5.9,8.2,8.7c0.7,0.7,1.4,0.9,2.1,0.6c0.7-0.2,0.8-1.1,0.3-1.5c-3.1-2.9-6.1-5.7-8.8-8.5c-0.9-1-1.5-1.9-1.6-2.9
	c-0.1-1,1.1-1.7,1.9-0.9l10.8,10.5C285.8,365.6,286.2,365.6,286.5,365.2z"/>
<path class="st5" d="M127,358.9l4.4,2c0.4,0.2,0.6,0.7,0.4,1.1l-1.9,4.2c-0.2,0.4-0.7,0.6-1.1,0.4l-4.4-2c-0.4-0.2-0.6-0.7-0.4-1.1
	l1.9-4.2C126.1,358.9,126.6,358.7,127,358.9z"/>
<path class="st5" d="M469.7,360.9l4.1-2c0.4-0.2,0.9,0,1.1,0.4l2,4.1c0.2,0.4,0,0.9-0.4,1.1l-4.1,2c-0.4,0.2-0.9,0-1.1-0.4l-2-4.1
	C469.1,361.6,469.3,361.1,469.7,360.9z"/>
<path class="st5" d="M133.1,373.6l4.1,1.5c0.5,0.2,0.8,0.7,0.6,1.3l-1.5,4.1c-0.2,0.5-0.7,0.8-1.3,0.6l-4.1-1.5
	c-0.5-0.2-0.8-0.7-0.6-1.3l1.5-4.1C132,373.7,132.6,373.4,133.1,373.6z"/>
<path class="st3" d="M463.8,375.2l4.4-1.5c0.4-0.1,0.8,0.1,1,0.5l1.5,4.3c0.1,0.4-0.1,0.8-0.5,1l-4.4,1.5c-0.4,0.1-0.8-0.1-1-0.5
	l-1.5-4.3C463.2,375.8,463.4,375.3,463.8,375.2z"/>
<path class="st5" d="M140,387.8l4.3,1c0.5,0.1,0.8,0.6,0.7,1.1l-1,4.4c-0.1,0.5-0.6,0.8-1.1,0.7l-4.3-1c-0.5-0.1-0.8-0.6-0.7-1.1
	l1-4.4C139.1,388,139.5,387.7,140,387.8z"/>
<path class="st5" d="M456.7,388.9l4.4-1.1c0.4-0.1,0.9,0.2,1,0.6l1.2,4.6c0.1,0.4-0.2,0.9-0.6,1l-4.4,1.1c-0.4,0.1-0.9-0.2-1-0.6
	l-1.2-4.6C456,389.5,456.2,389,456.7,388.9z"/>
<path class="st3" d="M148.3,401.2l4.7,0.8c0.5,0.1,0.8,0.5,0.7,1l-0.8,4.6c-0.1,0.5-0.5,0.8-1,0.7l-4.7-0.8c-0.5-0.1-0.8-0.5-0.7-1
	l0.8-4.6C147.4,401.5,147.8,401.2,148.3,401.2z"/>
<path class="st5" d="M448.1,402.1l4.7-0.9c0.4-0.1,0.9,0.2,0.9,0.7l0.8,4.5c0.1,0.4-0.2,0.9-0.7,0.9l-4.7,0.9
	c-0.4,0.1-0.9-0.2-0.9-0.7l-0.8-4.5C447.3,402.6,447.6,402.2,448.1,402.1z"/>
<path class="st5" d="M163.1,415.4L163,420c0,0.5-0.5,0.9-0.9,0.8l-4.8-0.7c-0.4-0.1-0.8-0.5-0.7-0.9l0.5-4.5
	c0.1-0.5,0.5-0.8,0.9-0.7l4.4,0.5C162.7,414.6,163.1,414.9,163.1,415.4z"/>
<path class="st5" d="M438.5,414.5l4.9-0.4c0.3,0,0.6,0.2,0.6,0.5l0.4,4.8c0,0.3-0.2,0.6-0.5,0.6l-4.9,0.4c-0.3,0-0.6-0.2-0.6-0.5
	l-0.4-4.8C437.9,414.9,438.2,414.6,438.5,414.5z"/>
<path class="st3" d="M168.2,426l5,0c0.4,0,0.7,0.3,0.7,0.7l0,4.9c0,0.4-0.3,0.7-0.7,0.7l-5,0c-0.4,0-0.7-0.3-0.7-0.7l0-4.9
	C167.5,426.2,167.8,426,168.2,426z"/>
<path class="st3" d="M433.4,427l-0.1,4.4c0,0.4-0.3,0.7-0.7,0.7l-4.5,0.1c-0.4,0-0.7-0.3-0.7-0.7l0.1-4.9c0-0.4,0.4-0.7,0.8-0.7
	l4.6,0.4C433.1,426.3,433.4,426.6,433.4,427z"/>
<path class="st5" d="M179.6,437l5.1-0.4c0.3,0,0.5,0.2,0.5,0.5l0.4,5c0,0.3-0.2,0.5-0.5,0.5l-5.1,0.4c-0.3,0-0.5-0.2-0.5-0.5l-0.4-5
	C179.1,437.3,179.3,437,179.6,437z"/>
<path class="st3" d="M416.7,436.5l4.5,0.4c0.5,0,0.8,0.5,0.8,1l-0.5,4.6c0,0.5-0.5,0.8-1,0.8l-4.5-0.4c-0.5,0-0.8-0.5-0.8-1l0.5-4.6
	C415.8,436.8,416.2,436.4,416.7,436.5z"/>
<path class="st3" d="M192.3,446.9l4.7-0.9c0.4-0.1,0.9,0.2,0.9,0.6l0.8,4.4c0.1,0.4-0.2,0.9-0.6,0.9l-4.7,0.9
	c-0.4,0.1-0.9-0.2-0.9-0.6l-0.8-4.4C191.5,447.4,191.8,447,192.3,446.9z"/>
<path class="st3" d="M404.2,446l4.5,0.8c0.4,0.1,0.7,0.5,0.6,0.9l-0.8,4.4c-0.1,0.4-0.5,0.7-0.9,0.6L403,452
	c-0.4-0.1-0.7-0.5-0.6-0.9l0.8-4.4C403.3,446.2,403.7,445.9,404.2,446z"/>
<path class="st3" d="M205.8,455.5l4.1-1.1c0.6-0.1,1.2,0.2,1.3,0.8l1,4.1c0.1,0.6-0.2,1.2-0.8,1.3l-4.1,1.1
	c-0.6,0.1-1.2-0.2-1.3-0.8l-1-4.1C204.9,456.2,205.2,455.6,205.8,455.5z"/>
<path class="st3" d="M390.9,454.4l4.6,1.2c0.4,0.1,0.7,0.5,0.6,1l-1.2,4.4c-0.1,0.4-0.5,0.7-1,0.6l-4.6-1.2c-0.4-0.1-0.7-0.5-0.6-1
	l1.2-4.4C390,454.5,390.5,454.3,390.9,454.4z"/>
<path class="st5" d="M376.9,461.6l4.4,1.5c0.4,0.1,0.7,0.6,0.5,1l-1.5,4.4c-0.1,0.4-0.6,0.7-1,0.5l-4.4-1.5c-0.4-0.1-0.7-0.6-0.5-1
	l1.5-4.4C376,461.6,376.5,461.4,376.9,461.6z"/>
<path class="st3" d="M219.7,463.3l3.9-1.6c0.5-0.2,1.1,0,1.4,0.5l1.6,3.8c0.2,0.5,0,1.1-0.5,1.4l-3.9,1.6c-0.5,0.2-1.1,0-1.4-0.5
	l-1.6-3.8C218.9,464.1,219.1,463.5,219.7,463.3z"/>
<path class="st3" d="M234.2,469.6l4.3-2.1c0.4-0.2,0.8,0,1,0.3l2,4.2c0.2,0.4,0,0.8-0.3,1l-4.3,2.1c-0.4,0.2-0.8,0-1-0.3l-2-4.2
	C233.7,470.2,233.8,469.8,234.2,469.6z"/>
<path class="st3" d="M362.4,467.6l4.3,1.9c0.4,0.2,0.6,0.7,0.4,1.1l-1.9,4.3c-0.2,0.4-0.7,0.6-1.1,0.4l-4.3-1.9
	c-0.4-0.2-0.6-0.7-0.4-1.1l1.9-4.3C361.5,467.7,362,467.5,362.4,467.6z"/>
<path class="st5" d="M347.5,472.2l4,2.3c0.4,0.2,0.6,0.7,0.3,1.2l-2.2,4c-0.2,0.4-0.7,0.6-1.2,0.3l-4-2.3c-0.4-0.2-0.6-0.7-0.3-1.2
	l2.2-4C346.6,472.2,347.1,472,347.5,472.2z"/>
<path class="st5" d="M249.3,474.8l4.2-2.5c0.3-0.2,0.7-0.1,0.9,0.2l2.5,4.1c0.2,0.3,0.1,0.7-0.2,0.9l-4.2,2.5
	c-0.3,0.2-0.7,0.1-0.9-0.2l-2.5-4.1C248.9,475.4,249,475,249.3,474.8z"/>
<path class="st3" d="M265.1,478.3l3.6-2.5c0.4-0.3,1-0.2,1.3,0.2l2.5,3.6c0.3,0.4,0.2,1-0.2,1.3l-3.6,2.5c-0.4,0.3-1,0.2-1.3-0.2
	l-2.5-3.6C264.6,479.1,264.7,478.6,265.1,478.3z"/>
<path class="st3" d="M332.3,475.7l3.8,2.6c0.4,0.3,0.5,0.9,0.2,1.3l-2.6,3.7c-0.3,0.4-0.9,0.5-1.3,0.2l-3.8-2.6
	c-0.4-0.3-0.5-0.9-0.2-1.3l2.6-3.7C331.4,475.5,331.9,475.4,332.3,475.7z"/>
<path class="st5" d="M280.6,480.9l3.5-3.1c0.4-0.3,0.9-0.3,1.2,0.1l3,3.5c0.3,0.4,0.3,0.9-0.1,1.2l-3.5,3.1
	c-0.4,0.3-0.9,0.3-1.2-0.1l-3-3.5C280.2,481.7,280.3,481.2,280.6,480.9z"/>
<path class="st3" d="M316.8,477.8l3.4,2.8c0.4,0.3,0.4,0.9,0.1,1.3l-2.9,3.5c-0.3,0.4-0.9,0.4-1.3,0.1l-3.4-2.8
	c-0.4-0.3-0.4-0.9-0.1-1.3l2.9-3.5C315.8,477.5,316.4,477.5,316.8,477.8z"/>
<path class="st3" d="M296.6,481.6l3.3-3.2c0.4-0.4,1-0.4,1.3,0l3.2,3.3c0.4,0.4,0.4,1,0,1.3l-3.3,3.2c-0.4,0.4-1,0.4-1.3,0l-3.2-3.3
	C296.3,482.6,296.3,482,296.6,481.6z"/>
<path class="st6" d="M217.3,278.4l12.4,16.5c0.2,0.3,0.5,0.5,0.8,0.7c0.5,0.2,0.9,0.6,1.2,0.9c0.3,0.4,0.2,0.6-0.2,0.7
	c-5.2,1-9.7,0.3-13.4-2.1c-2-1.3-4.7-4.5-8.2-9.6c-2.8-4-5.5-8-8.4-12c-0.3-0.4-0.2-1,0.2-1.4c3.3-3,6.1-5.9,9.8-8.9
	c2.6-2.1,5.1-4.4,7.3-7c0.8-0.9,1-2.4,0.4-3.3c-0.7-1.1-2.7-1.3-3.8-2.3c-0.4-0.3-0.1-0.9,0.3-0.9l14.7,0.2c0.3,0,0.4,0.4,0.2,0.6
	c-7.4,5.1-14.2,10.8-20.4,17.2c-0.2,0.3-0.3,0.5-0.1,0.8L217.3,278.4"/>
<path class="st6" d="M278.3,268.8c-0.1-11.1-9.1-20-20.1-19.9l-6.6,0c-11.1,0.1-20,9.1-19.9,20.1l0,8.9c0.1,11.1,9.1,20,20.1,19.9
	l6.6,0c11.1-0.1,20-9.1,19.9-20.1L278.3,268.8z M265.1,286.9c-0.9,4.6-3.8,7.5-8.4,8.3c-13.3,2.2-13.5-14.2-13.2-23.8l0-3
	c0-4.7,1.1-9.5,3.3-14.4c0.2-0.4,0.7-0.9,1.5-1.6c0.6-0.5,1.2-0.8,1.9-1.1c10.9-3.2,14.4,4.1,15.6,13.4
	C266.8,272.1,266.5,279.5,265.1,286.9z"/>
<path class="st6" d="M377.2,264.9l0.1-12.1c0-0.4-0.2-0.6-0.5-0.7l-3.7-1.3c-0.5-0.2-0.4-0.9,0.1-0.9c11.7-0.3,20.9-0.3,27.4-0.2
	c10,0.2,15.4,5.3,13.3,15.5c-1,4.9-5.8,8.2-10.7,9c-0.4,0.1-0.6,0.5-0.4,0.9c3.8,5.8,7.6,11.5,11.4,17.2c1.1,1.7,2.5,3.1,4.1,4.2
	c0.3,0.2,0.2,0.7-0.2,0.8c-6.3,0.6-13.4,0.3-17.1-5.7c-3-5-6-9.9-9-14.9c-0.2-0.4-0.5-0.6-1-0.6l-2.1-0.1c-0.4,0-0.7,0.3-0.6,0.6
	l0.1,17.1c0,0.4,0.2,0.6,0.5,0.7l3.7,1.6c0.5,0.2,0.4,1-0.2,1l-19.2,0c-0.2,0-0.3-0.1-0.3-0.3l0-0.5c0-0.3,0.2-0.5,0.5-0.6
	c2.6-0.3,3.9-2,3.8-4.9c-0.1-3.9,0-15.7,0-27.1 M388.1,253.1v19.4c0,0.4,0.3,0.7,0.7,0.7h6.1c4.4,0,8-3.6,8-8v-4.8c0-4.4-3.6-8-8-8
	h-6.1C388.4,252.5,388.1,252.8,388.1,253.1z"/>
<path class="st5" d="M134.6,268.8l-2.8,2.2c0,0.4-0.2,0.7-0.5,0.8c-0.8,0.3-1.5,0.3-2.2-0.2c-0.3-0.2-0.7-0.2-0.9,0.1l-0.9,0.8
	c8.7-49.7,37-91.5,79.1-118.7c2.6-1.7,5.8-3.4,9.5-5.3c4.4-2.2,8.9-4.6,13-6.5c50.9-22.7,111.9-19.6,160.1,8.6
	c55.1,32.3,89.5,92,86.7,156.4c-1.6,36.4-13.8,70.4-36,99c-21.6,27.7-49,47.3-82.5,58.8l0.1-1.5c0-0.4-0.1-0.6-0.5-0.7l-6.8-2.2
	c29.9-9.3,55.2-25.3,75.8-48c24.9-27.4,39.2-59.6,42.7-96.5c3.5-36.7-5.7-74.4-25.4-104.9c-24.1-37.4-62.7-64.5-106-73.8
	c-42.8-9.2-89-2.1-126.5,21.7C171,184.2,143.8,222.6,134.6,268.8"/>
</svg>
