<?xml version="1.0" encoding="utf-8"?>
<!-- Generator: Adobe Illustrator 26.0.2, SVG Export Plug-In . SVG Version: 6.00 Build 0)  -->
<svg version="1.1" id="Layer_1" xmlns="http://www.w3.org/2000/svg" xmlns:xlink="http://www.w3.org/1999/xlink" x="0px" y="0px" 
	 viewBox="0 0 4000 4000" style="enable-background:new 0 0 4000 4000;" xml:space="preserve">
<style type="text/css">
	.st0{fill:#E81818;}
	.st1{opacity:0.25;}
	.st2{fill:#371B45;}
	.st3{opacity:0.7;}
	.st4{fill:#FFFFFF;}
	.st5{fill:#E94E51;}
	.st6{fill:#F5A341;}
	.st7{opacity:0.5;}
	.st8{fill:#3BCCFF;}
	.st9{opacity:0.35;}
	.st10{opacity:0.3;}
	.st11{fill:#293856;}
	.st12{fill:#22132C;}
</style>
<g>
	<g>
		<polygon class="st0" points="1750.3,2588.2 1045.8,2409.3 847.7,2536.4 1307.2,2872.6 		"/>
	</g>
	<g>
		<polygon class="st0" points="1750.3,2588.2 1619.4,3303.2 1421.3,3430.3 1307.2,2872.6 		"/>
	</g>
	<g>
		<g class="st1">
			<path class="st2" d="M1750.3,2588.2l-443.1,284.4l114.1,557.8l70.6-45.3l-32.1-156.7c-7.5-36.8,6.5-74.8,36.2-97.8
				c48.3-37.5,92.5-79.7,132.1-125.9c21.6-25.3,41.8-51.7,60.5-79.3L1750.3,2588.2z"/>
		</g>
		<g class="st1">
			<path class="st2" d="M1750.3,2588.2l-443.1,284.4l-459.5-336.1l70.6-45.3l129.1,94.4c30.4,22.2,70.7,25.2,104,7.8
				c54.2-28.3,111-50.9,169.5-67.6c32-9.1,64.4-16.4,97.2-21.9L1750.3,2588.2z"/>
		</g>
		<g class="st3">
			<g>
				<g>
					<polygon class="st4" points="1045.7,2409.3 1007.2,2434 1698.8,2621.3 1750.3,2588.2 					"/>
				</g>
			</g>
		</g>
		<g class="st3">
			<g>
				<g>
					<polygon class="st4" points="1750.3,2588.2 1698.8,2621.3 1580.8,3327.9 1619.4,3303.2 					"/>
				</g>
			</g>
		</g>
		<g>
			<path class="st2" d="M1306.5,2896.4l-493.6-361.1l229.5-147.3l756.9,192.1L1306.5,2896.4z M882.5,2537.5l425.4,311.2l393.6-252.6
				l-652.3-165.6L882.5,2537.5z"/>
		</g>
		<g>
			<path class="st0" d="M1212.7,2247.1c22.1,34.4-98.2,133.5-150.2,165.2l-295.1,180c-18.2,11.1-41.9,5.6-53.4-12.3l-11.7-18.3
				c-11.5-17.9-6.6-41.8,11.1-53.7l286.6-193.3C1050.4,2280.8,1190.6,2212.7,1212.7,2247.1"/>
		</g>
		<g class="st3">
			<g>
				<g>
					<path class="st4" d="M999.9,2314.8l-30.6,20.6c62-34.9,164.4-78.6,183-49.6c18.6,29-63.8,103.9-121.3,145.7l31.5-19.2
						c52-31.7,172.2-130.8,150.2-165.2C1190.6,2212.7,1050.4,2280.8,999.9,2314.8"/>
				</g>
			</g>
		</g>
		<g>
			<path class="st2" d="M1407.8,3462.4l-122.6-599.2l492.7-316.2l-140.6,768.1L1407.8,3462.4z M1329.2,2881.8l105.7,516.4l166.7-107
				l121.2-662L1329.2,2881.8z"/>
		</g>
		<g>
			<path class="st0" d="M1836.4,3219c-22.1-34.4-162.2,33.7-212.7,67.7L1337,3480c-17.7,11.9-22.6,35.7-11.1,53.7l11.7,18.3
				c11.5,17.9,35.2,23.4,53.4,12.3l295.1-180C1738.2,3352.5,1858.4,3253.4,1836.4,3219"/>
		</g>
		<g class="st1">
			<path class="st2" d="M1523.9,3354L1337,3480.1c-17.7,11.9-22.6,35.7-11.1,53.6l11.7,18.3c11.5,17.9,35.2,23.4,53.4,12.3
				l192.6-117.5c-61.8,31.9-144.7,63.7-161.2,37.9C1405.9,3458.9,1469.3,3396.8,1523.9,3354"/>
		</g>
		<g class="st3">
			<g>
				<g>
					<path class="st4" d="M1623.6,3286.7l-30.6,20.6c62-34.9,164.4-78.6,183-49.6c18.6,29-63.8,103.9-121.3,145.7l31.5-19.2
						c52-31.7,172.2-130.8,150.2-165.2C1814.3,3184.6,1674.1,3252.7,1623.6,3286.7"/>
				</g>
			</g>
		</g>
		<g>
			<path class="st2" d="M1370.9,3589.6c-19.5,0-38.7-9.6-49.8-27l-11.7-18.3c-17.1-26.7-9.7-62.9,16.6-80.6l286.6-193.3
				c41.2-27.8,161.2-90,213.7-79.2c14.9,3.1,22.7,11,26.7,17.2l0,0c3.9,6.1,7.9,16.6,4.5,31.4c-12,52.2-118.6,135.4-161,161.3
				l-295.1,180C1391.9,3586.8,1381.4,3589.6,1370.9,3589.6z M1811.7,3228.8c-31.5,0-121.5,36.9-177.1,74.3L1348,3496.4
				c-8.7,5.9-11.2,17.8-5.5,26.7l11.7,18.3c5.7,8.8,17.6,11.6,26.6,6.1l295.1-180c62.9-38.4,142.6-115.1,143.5-137.5
				C1817.5,3229.2,1814.9,3228.8,1811.7,3228.8z M1820.6,3230.6L1820.6,3230.6L1820.6,3230.6z"/>
		</g>
		<g class="st1">
			<path class="st2" d="M900.2,2382.1l-186.9,126.1c-17.7,11.9-22.6,35.7-11.1,53.6l11.7,18.3c11.5,17.9,35.2,23.4,53.4,12.3
				L960,2474.8c-61.8,31.9-144.7,63.7-161.2,37.9C782.2,2487,845.5,2424.9,900.2,2382.1"/>
		</g>
		<g>
			<path class="st2" d="M747.2,2617.7c-19.5,0-38.6-9.6-49.8-27l-11.7-18.3c-17.1-26.7-9.7-62.9,16.6-80.6l286.6-193.3
				c41.2-27.8,161.1-90,213.7-79.2c14.9,3.1,22.7,11,26.7,17.2c3.9,6.1,7.9,16.6,4.5,31.4c-12,52.2-118.6,135.4-161,161.3
				l-295.1,180C768.2,2614.9,757.6,2617.7,747.2,2617.7z M1188,2256.9c-31.5,0-121.5,36.9-177.1,74.3l-286.6,193.3
				c-8.9,6-11.3,17.7-5.5,26.7l11.7,18.3c5.7,8.8,17.6,11.6,26.5,6.1l295.1-180c62.9-38.4,142.6-115.1,143.5-137.5
				C1193.8,2257.2,1191.2,2256.9,1188,2256.9z M1196.9,2258.6L1196.9,2258.6L1196.9,2258.6z"/>
		</g>
		<g>
			<path class="st4" d="M2557,2664.6c-415.4,266.6-837.4,370.4-1008.1,403.8c-47,9.2-94.7-11.1-120.5-51.3l-202.1-315
				c-25.9-40.2-24.4-92.1,3.5-131c44-61.1,119.5-159.6,224.7-273.2c0.3-0.3,0.6-0.6,0.8-0.9c128.6-138.7,301.4-300,515-443.6
				c15.3-10.3,30.7-20.5,46.4-30.5c35-22.5,69.7-43.8,104.1-63.9c19.5-11.5,39-22.5,58.2-33.2c10.6-5.9,21.2-11.7,31.8-17.4
				c11.7-6.3,23.3-12.5,34.9-18.5c135.6-70.7,264.9-124.1,385.2-163.3c449.8-147,772.7-98,817.4-28.2
				C3511.8,1597,3305.5,2184.3,2557,2664.6"/>
		</g>
		<g class="st1">
			<g>
				<g>
					<path class="st2" d="M2016.8,1823c-415.4,266.6-685.5,607-787,748.2c-27.9,38.8-29.3,90.7-3.5,131l202.1,314.9
						c25.8,40.3,73.6,60.6,120.5,51.4c170.6-33.4,592.6-137.2,1008-403.8c43-27.6,84.3-55.6,123.9-83.8
						c-367.4,238.5-980.7,492.4-1184.9,174.1c-204.3-318.3,288.4-782.7,648.7-1009.6C2102.5,1769.5,2059.9,1795.3,2016.8,1823"/>
				</g>
			</g>
		</g>
		<g>
			<path class="st2" d="M1526.1,3090.4c-45.8,0-88.8-23-114.3-62.7l-202.1-315c-30.4-47.3-28.8-107.4,4.1-153.1
				c98.1-136.6,371.9-483.4,792.4-753.3l0,0c411.3-264,760.4-353.6,980.9-382.4c264.8-34.5,440.9,5.9,478,63.7
				c37.1,57.8,0.5,234.7-141.2,461.1c-118,188.4-344.9,468.4-756.2,732.4c-420.5,269.9-849.8,374.2-1014.9,406.5
				C1543.8,3089.5,1534.9,3090.4,1526.1,3090.4z M3172.4,1450.7c-52.9,0-113.1,3.7-180.3,12.4c-216.4,28.2-559.5,116.4-964.7,376.4
				l0,0c-414.8,266.2-684.8,608.4-781.7,743.1c-23.3,32.5-24.5,75.2-2.9,108.8l202.1,315c21.6,33.6,60.9,50.4,100.1,42.7
				c162.9-31.9,586.4-134.8,1001.2-401c405.2-260,628.3-535.2,744.1-720.2c138.2-220.7,166.1-380.4,141.4-418.9
				C3413.6,1480.6,3323,1450.7,3172.4,1450.7z M2016.8,1823L2016.8,1823L2016.8,1823z"/>
		</g>
		<g>
			<path class="st0" d="M1983.6,2016.6c-60.6,38.9-105.2,93.3-131.8,154.7c-44.8,103.3-39,226.3,26.4,328.2
				c56.8,88.5,146.8,142.8,243.3,157c80.6,11.9,165.7-4.2,239.7-51.6c162.5-104.3,209.7-320.5,105.4-483
				C2362.2,1959.5,2146,1912.3,1983.6,2016.6"/>
		</g>
		<g class="st3">
			<g>
				<g>
					<path class="st4" d="M1836.6,2408.5c-10.7-66.4-1.9-134.2,24.6-195.3c26.6-61.4,71.2-115.9,131.8-154.7
						c162.5-104.3,378.7-57.1,483,105.4c18.5,28.9,32.3,59.5,41.4,90.8c-7.4-45.9-24.2-91.1-50.9-132.7
						c-104.3-162.5-320.5-209.6-483-105.3c-60.6,38.9-105.1,93.3-131.8,154.7C1819.7,2245.3,1813.6,2329.3,1836.6,2408.5"/>
				</g>
			</g>
		</g>
		<g class="st1">
			<path class="st2" d="M1878.2,2499.6c56.8,88.5,146.8,142.8,243.3,157c80.6,11.9,165.7-4.2,239.7-51.6
				c142.7-91.6,196.5-269.5,136.8-421.6c8.8,123.4-48.4,247.7-159.9,319.2c-73.9,47.5-159.1,63.6-239.6,51.7
				c-96.5-14.2-186.5-68.5-243.3-157c-12.7-19.8-23.1-40.3-31.3-61.3C1827.7,2392.3,1845.5,2448.6,1878.2,2499.6"/>
		</g>
		<g>
			<path class="st5" d="M866.1,2945.3c-82.2,52.8-325.2,418.9-325.2,418.9s434.1-68.3,516.3-121.1c82.2-52.8,106.1-162.2,53.3-244.5
				C1057.8,2916.4,948.4,2892.6,866.1,2945.3"/>
		</g>
		<g>
			<path class="st6" d="M956.4,2984.4c-44.3,28.4-175.1,225.6-175.1,225.6s233.8-36.8,278-65.2c44.3-28.4,57.2-87.4,28.7-131.7
				C1059.6,2968.9,1000.7,2956,956.4,2984.4"/>
		</g>
		<g>
			<path class="st2" d="M540.9,3384c-6.6,0-12.9-3.4-16.6-9.1c-4.2-6.6-4.2-15,0.2-21.5c10-15.1,246.2-370.2,331-424.6l0,0
				c91.3-58.6,213.1-32,271.7,59.3c58.6,91.3,32,213.1-59.3,271.7c-84.8,54.4-506,121.2-523.9,124C543,3383.9,541.9,3384,540.9,3384
				z M961.5,2937.1c-29.1,0-58.4,8-84.7,24.9l0,0c-57.7,37-213.8,257.1-294.1,375.6c141.2-23.7,406.3-73.9,464-110.9
				c73-46.8,94.2-144.3,47.4-217.3C1064,2962.6,1013.3,2937.1,961.5,2937.1z M866.1,2945.3L866.1,2945.3L866.1,2945.3z"/>
		</g>
		<g>
			<path class="st2" d="M1216.3,2686.4l-42.9,27.5c-33.1,21.3-42.8,65.4-21.5,98.5l145.2,226.3c21.3,33.2,65.4,42.8,98.5,21.5
				l42.9-27.5L1216.3,2686.4z"/>
		</g>
		<g class="st3">
			<g>
				<g>
					<path class="st4" d="M1216.3,2686.4l-42.9,27.5c-33.1,21.3-42.7,65.4-21.5,98.5l24,37.4c-21.3-33.1-11.7-77.2,21.5-98.5
						l42.9-27.5L1216.3,2686.4z"/>
				</g>
			</g>
		</g>
		<g class="st3">
			<g>
				<g>
					<path class="st4" d="M1255.2,2747.2l-42.9,27.5c-33.1,21.3-42.7,65.4-21.5,98.5l24,37.4c-6.7-10.4-22.8-41.3-23.6-52.8
						c-1.8-25.2,9.9-50.6,32.6-65.2l42.9-27.5L1255.2,2747.2z"/>
				</g>
			</g>
		</g>
		<g class="st3">
			<g>
				<g>
					<path class="st4" d="M1430.2,3019.8l-42.9,27.5c-33.1,21.3-77.2,11.6-98.5-21.5l-24-37.4c6.7,10.4,28.1,37.9,38.2,43.5
						c22.1,12.1,50.1,12.1,72.8-2.5l42.9-27.5L1430.2,3019.8z"/>
				</g>
			</g>
		</g>
		<g>
			<path class="st2" d="M1069.8,2820c-16.8,10.8-21.7,33.1-10.9,50l147.2,229.4c10.8,16.8,33.1,21.7,50,10.9
				c5.5-3.6,10-8.5,12.9-14.5l28.1-57.1l-145.2-226.3l-63.6,1.8C1081.7,2814.5,1075.3,2816.4,1069.8,2820"/>
		</g>
		<g class="st3">
			<g>
				<g>
					<path class="st4" d="M1069.8,2820c-16.8,10.8-21.7,33.1-10.9,50l21,32.7c-10.8-16.8-5.9-39.2,10.9-50
						c5.6-3.6,11.9-5.5,18.5-5.7l63.6-1.8l-21-32.7l-63.6,1.8C1081.7,2814.5,1075.3,2816.4,1069.8,2820"/>
				</g>
			</g>
		</g>
		<g class="st3">
			<g>
				<g>
					<path class="st4" d="M1258.5,3114c-16.8,10.8-39.2,5.9-50-10.9l-21-32.7c10.8,16.8,33.2,21.7,50,10.9c5.6-3.6,10-8.5,12.9-14.4
						l28.1-57.1l21,32.7l-28.2,57C1268.5,3105.5,1264,3110.5,1258.5,3114"/>
				</g>
			</g>
		</g>
		<g>
			<path class="st0" d="M2618.1,1530.9c53,118.4,119.5,241.7,198.4,364.6c81.7,127.3,169.3,242.7,257.9,342.6
				c327.3-351.1,419.1-669.5,374-739.7C3403.3,1428,3074.7,1378.7,2618.1,1530.9"/>
		</g>
		<g class="st7">
			<g>
				<g>
					<path class="st4" d="M3174,1533.4c-112.8-6.9-245.7,6.2-386.2,66.1c-97.7,41.7,164.9,46.2,288.8,28.2
						C3282.8,1597.9,3306.9,1541.5,3174,1533.4"/>
				</g>
			</g>
		</g>
		<g class="st7">
			<g>
				<g>
					<path class="st4" d="M2628,1526c3.3,7.4,6.6,14.8,10.1,22.2c411.1-118.8,701.5-71.4,743.7-5.6
						c42.2,65.7-35.4,348.6-313.6,672.2c5.4,6.2,10.7,12.3,16.1,18.4c327.3-351.1,419.1-669.5,374-739.7
						C3413.2,1423.1,3084.6,1373.8,2628,1526"/>
				</g>
			</g>
		</g>
		<g>
			<path class="st2" d="M1357.3,3091.2c-30,0-59.4-14.8-76.7-41.8l-145.2-226.3c-27.1-42.2-14.8-98.7,27.4-125.8l59.5-38.2
				l243.5,379.5l-59.5,38.2C1391.1,3086.6,1374.1,3091.2,1357.3,3091.2z M1210.3,2713.7l-26.3,16.9c-23.9,15.4-30.9,47.3-15.6,71.3
				l145.2,226.3c15.4,23.9,47.4,30.9,71.3,15.6l26.3-16.9L1210.3,2713.7z"/>
		</g>
		<g>
			<path class="st2" d="M1236.6,3135.7c-4,0-8-0.4-12-1.3c-14.6-3.2-27-11.8-35.1-24.4l-147.2-229.4c-16.6-25.9-9.1-60.6,16.8-77.2
				l0,0c8.6-5.5,18.5-8.5,28.6-8.8l74.7-2.1l157.2,245l-33.1,67c-4.5,9.1-11.4,16.8-20,22.3
				C1257.6,3132.7,1247.2,3135.7,1236.6,3135.7z M1080.4,2836.6c-7.6,4.9-9.8,15.1-4.9,22.7l147.2,229.4c2.4,3.7,6,6.3,10.3,7.2
				c4.3,0.9,8.7,0.1,12.4-2.2c2.5-1.6,4.6-3.9,5.9-6.5l23.2-47.1l-133.2-207.5l-52.5,1.5C1085.8,2834.1,1083,2834.9,1080.4,2836.6
				L1080.4,2836.6z"/>
		</g>
		<g>
			<path class="st2" d="M2172.9,2679.9c-121.7,0-240.9-59.9-311.3-169.7c-110-171.3-60-400.2,111.3-510.2l0,0
				c83-53.3,181.8-71,278.1-50c96.4,21,178.8,78.3,232,161.3c53.3,83,71,181.8,50,278.1c-21,96.4-78.3,178.8-161.3,232
				C2310.2,2661.1,2241.2,2679.9,2172.9,2679.9z M1994.2,2033.2c-153.1,98.2-197.7,302.7-99.4,455.7
				c62.9,98,169.4,151.6,278.1,151.6c61,0,122.6-16.8,177.6-52.2c74.1-47.6,125.3-121.2,144.1-207.3c18.8-86.1,2.9-174.3-44.7-248.5
				c-47.6-74.1-121.2-125.3-207.3-144.1C2156.6,1969.7,2068.3,1985.6,1994.2,2033.2L1994.2,2033.2z"/>
		</g>
		<g>
			<path class="st8" d="M1957.4,2448.7c47.5,74,126.7,115.3,208.5,117.4c30.5,0.8,61.4-3.9,91-14.3c18.4-6.5,36.3-15.1,53.4-26.1
				c14.5-9.3,27.6-19.8,39.5-31.2c33.6-32.3,56.8-72.6,68.7-115.8c18.6-67.5,9.5-142.3-31.3-205.9c-46.1-71.8-122-112.8-201.1-117.1
				c-44.5-2.5-89.9,6.6-131.6,28.4c-6.8,3.5-13.6,7.4-20.2,11.7c-12.8,8.2-24.5,17.3-35.3,27.3c-34,31.3-57.9,70.4-70.9,112.8
				C1906.9,2305.1,1915.1,2383,1957.4,2448.7"/>
		</g>
		<g class="st1">
			<path class="st2" d="M1934.4,2404c6,15.4,13.7,30.4,22.9,44.8c47.5,74,126.7,115.3,208.5,117.4c30.5,0.8,61.4-3.9,91-14.3
				c18.4-6.5,36.3-15.1,53.4-26.1c14.5-9.3,27.6-19.8,39.5-31.2c33.6-32.3,56.8-72.6,68.7-115.8c18.6-67.5,9.5-142.3-31.3-205.9
				c-0.7-1.1-1.5-2.3-2.3-3.4c20.6,52.4,22.7,108.9,8.4,161.1c-11.9,43.2-35.2,83.5-68.8,115.8c-11.9,11.5-25.1,22-39.5,31.2
				c-17.1,11-35,19.7-53.4,26.1c-29.7,10.4-60.5,15.1-91,14.3C2060.2,2515.8,1982.1,2475.8,1934.4,2404"/>
		</g>
	</g>
	<g>
		<g>
			<path class="st2" d="M2172.9,2586c-19.7,0-39.5-2.1-59.2-6.4c-71.8-15.7-133.2-58.4-172.9-120.2
				c-39.7-61.9-52.9-135.5-37.3-207.3c15.7-71.8,58.4-133.2,120.2-172.9l0,0c61.9-39.7,135.5-52.9,207.3-37.3
				c71.8,15.7,133.2,58.4,172.9,120.2c81.9,127.7,44.7,298.2-83,380.2C2276,2571.1,2225,2586,2172.9,2586z M2171.9,2075
				c-44.6,0-88.4,12.7-126.8,37.4l0,0c-53,34-89.6,86.6-103,148.1c-13.4,61.5-2.1,124.6,31.9,177.6c34,53,86.6,89.6,148.1,103
				c61.5,13.4,124.6,2.1,177.6-31.9c53-34,89.6-86.6,103-148.1c13.4-61.5,2.1-124.6-31.9-177.6c-34-53-86.6-89.6-148.1-103
				C2205.7,2076.8,2188.7,2075,2171.9,2075z M2034.4,2095.8L2034.4,2095.8L2034.4,2095.8z"/>
		</g>
		<g>
			<path class="st0" d="M1524.5,2733.1c22.1,34.4-98.2,133.5-150.2,165.2l-295.1,180c-18.2,11.1-41.9,5.6-53.4-12.3l-11.7-18.3
				c-11.5-17.9-6.6-41.8,11.1-53.7l286.6-193.3C1362.3,2766.7,1502.4,2698.7,1524.5,2733.1"/>
		</g>
		<g class="st3">
			<g>
				<g>
					<path class="st4" d="M1311.8,2800.8l-36.8,24.8c62.2-34.6,162.1-76.8,180.5-48.2c18.3,28.6-61.7,101.9-119.1,144l38-23.2
						c52-31.7,172.2-130.8,150.2-165.2C1502.4,2698.7,1362.3,2766.7,1311.8,2800.8"/>
				</g>
			</g>
		</g>
		<g>
			<path class="st2" d="M3074.1,2267.4l-14.4-16.2c-91.9-103.6-179.3-219.7-259.7-345c-77.7-121.1-145-244.7-199.8-367.2l-8.9-19.9
				l20.6-6.9c259.2-86.4,456.3-102.4,576-100.7c142.1,2.1,248.3,31.3,277.2,76.3c28.8,44.9,11.2,153.4-45.9,283.1
				c-48.1,109.3-144.4,281.3-330.3,480.7L3074.1,2267.4z M2645.2,1542.8c52.4,114.2,115.5,229.2,188,342.1
				c75.1,117.1,156.4,225.9,241.7,323.8c172.4-188.4,262.7-350.1,308.3-453.7c57.8-131.2,65.8-219.5,48.8-246
				c-17-26.5-100.8-56.1-244.6-58.1C3073.8,1449.3,2888.8,1464.1,2645.2,1542.8z"/>
		</g>
		<g class="st1">
			<path class="st2" d="M1211.8,2867.5l-186.9,126.1c-17.7,11.9-22.6,35.7-11.1,53.6l11.7,18.3c11.5,17.9,35.2,23.4,53.4,12.3
				l192.6-117.5c-61.8,31.9-144.7,63.7-161.2,37.9C1093.8,2972.5,1157.1,2910.4,1211.8,2867.5"/>
		</g>
		<g>
			<path class="st2" d="M1059,3098.7c-17.9,0-35.4-8.8-45.7-24.7l-11.7-18.3c-15.7-24.5-8.9-57.6,15.2-73.9l286.6-193.3
				c40.7-27.4,158.9-88.9,209.9-78.4c13.2,2.7,20.1,9.7,23.5,15c3.4,5.3,6.9,14.5,3.8,27.6c-11.7,50.8-116.9,132.6-158.8,158.2
				l-295.1,180C1078.2,3096.2,1068.6,3098.7,1059,3098.7z M1499.7,2738.4c-39.8,0-132.7,43-179.6,74.7l-286.6,193.3
				c-10.9,7.4-14,22.3-6.9,33.4l11.7,18.3c7.1,11.1,22,14.5,33.3,7.7l295.1-180c51.8-31.6,137.6-105.8,145.3-139.6
				c0.6-2.8,0.5-4.5,0.1-5h0c-0.4-0.6-1.8-1.4-4.6-2C1505.2,2738.6,1502.6,2738.4,1499.7,2738.4z"/>
		</g>
		<g class="st9">
			<g>
				<g>
					<path class="st2" d="M1566.2,2390c-0.4,2.6-0.6,5.2-0.6,7.7C1565.6,2395.2,1565.8,2392.6,1566.2,2390"/>
				</g>
			</g>
		</g>
		<g class="st10">
			<g>
				<g>
					<path class="st11" d="M1158.9,2092.6c0.1-1.4,0.3-2.8,0.4-4.3C1159.2,2089.8,1159.1,2091.2,1158.9,2092.6L1158.9,2092.6z"/>
				</g>
			</g>
		</g>
		<g class="st1">
			<g>
				<g>
					<path class="st2" d="M2245.9,1689.9c-1,11.5-2.8,23.6-5.4,36.3c-2.1,10.1-5.3,20.4-9.5,31c-3.8,9.6-8.5,19.5-13.9,29.4
						c-5.6,10.2-12,20.5-19,30.9c-36.5,54.1-91.7,110.9-153.2,164.9c-9.2,8.1-18.6,16.1-28,24c-29.8,25-60.5,49.2-90.9,72
						c-35,26.3-71.6,52.3-107.3,76.9c97.4,126.4,47.3,283.5-95.5,359.5c2.6,20.9,12.8,121.9-21.7,187.1
						c-33.5,63.4-146.4,98.1-221.9,25.8c-40.9-39.2-103.6-212.9-80-290.8c17.2-57.1,59.4-96.4,98.1-129.2c-14.8-2.6-29.1-5.9-43-9.8
						c0.3-0.3,0.5-0.6,0.8-0.9c128.6-138.7,301.4-300,515-443.6c15.3-10.3,30.7-20.5,46.4-30.5c35-22.5,69.7-43.8,104.1-63.9
						c19.5-11.5,39-22.5,58.2-33.2c10.6-5.9,21.2-11.7,31.8-17.4C2222.7,1702.1,2234.3,1696,2245.9,1689.9"/>
				</g>
			</g>
		</g>
		<g>
			<path class="st4" d="M2204.5,1660.5c-2.3,10.9-5.7,22.1-10.3,33.5c-4.1,10.4-9.2,21-15,31.8c-6.1,11-12.9,22.2-20.6,33.5
				c-39.5,58.5-99.3,120-165.9,178.5c-10,8.8-20.1,17.4-30.4,26.1c-32.2,27.1-65.5,53.3-98.4,78c-39.4,29.5-80.6,58.8-120.7,86.3
				c-49.5,34-97.6,65.4-138.8,91.8c-74,47.4-126.3,78.4-126.3,78.4c-7.7-0.3-15.2-0.8-22.7-1.3c-91.5-7.2-170.4-35-232.5-76.9
				c-118.1-79.7-175-210.1-140.6-345c62.4-244.4,414-391.7,522.1-436c6.8-2.8,12.7-5.2,17.4-7.1c120.1-49.8,308.5-85,386.2-62.4
				C2067.2,1386.9,2249.3,1444.8,2204.5,1660.5"/>
		</g>
		<g class="st9">
			<g>
				<g>
					<path class="st2" d="M1604.4,2220c-74,47.4-126.3,78.4-126.3,78.4c-101.1-4-188-32.9-255.2-78.3
						c75.5,20.6,213.8,39.6,355.2-35.7L1604.4,2220z"/>
				</g>
			</g>
		</g>
		<g class="st1">
			<g>
				<g>
					<path class="st2" d="M1994.4,1947.6c-43.4,37.5-89.4,73.4-134.7,106.5c-41.1,30-84,59.5-125.8,87.1l-34.7-237.2
						c0,0,61.3,45.8,141.3,39.5c52.6-4.2,74.1-9.9,82.7-11.9C1934,1929.2,1972.7,1954.5,1994.4,1947.6"/>
				</g>
			</g>
		</g>
		<g>
			<path class="st2" d="M1483.1,2318.3l-5.8-0.2c-152.1-6-282.8-67.9-358.8-169.8c-60.7-81.4-80.3-180.1-55.3-278
				c28.2-110.5,114.9-214.2,257.6-308.2c112.8-74.3,230.9-122.6,281.3-143.2c4.6-1.9,8.6-3.5,12.1-5c120.1-49.8,313.6-88,399.2-63.1
				c214.8,62.4,233,205.1,210.4,313.8c-26.9,129.4-204.1,285.2-348.1,393.2c-173.9,130.4-385.5,256.4-387.6,257.7L1483.1,2318.3z
				 M1945.9,1382.5c-85.3,0-218.8,27.2-316.6,67.8h0c-3.5,1.5-7.6,3.1-12.3,5c-301.7,123.3-475.2,266.2-515.7,424.7
				c-22,86.1-4.7,173,48.7,244.7c67.9,91,185.3,146.9,322.9,153.7c33-19.8,221.7-134.3,379.1-252.3
				c195.8-146.8,314.1-278.1,333.1-369.6c27.9-134.4-33.6-224.5-182.8-267.9C1988.1,1384.4,1968.7,1382.5,1945.9,1382.5z
				 M1621.7,1432.1L1621.7,1432.1L1621.7,1432.1z"/>
		</g>
		<g class="st9">
			<g>
				<g>
					<path class="st2" d="M1229.9,1819.3c0,3,0.3,6,0.8,8.9C1230.2,1825.3,1230,1822.4,1229.9,1819.3"/>
				</g>
			</g>
		</g>
		<g>
			<path class="st4" d="M2782.2,1922.2c4.2,61.2-22.3,115.2-91.2,181.9c-82.2,79.3-108.2,27-380.2,6.9
				c-134.6-9.9-227.4-50.9-348.4-147.1c-12.7-10.1-25.7-20.9-39.2-32.2l47.2-78.2l62.9-104l85.9-142.2
				c24.7,35.4,49.9,63.9,75.1,86.7c5.6,5.1,11.2,9.9,16.8,14.4c19.7,15.9,39.3,28.5,58.6,38.5c85.1,43.9,163.6,35,214.6,26.8
				c36.9-5.9,200.8-50,207.5,3.3c5.7,45.5-43.4,51.1-43.4,51.1S2779.2,1878.8,2782.2,1922.2"/>
		</g>
		<g class="st1">
			<g>
				<g>
					<path class="st2" d="M2782.2,1922.2c4.2,61.2-22.3,115.2-91.2,181.9c-82.2,79.3-108.2,27-380.2,6.9
						c-134.6-9.9-227.4-50.9-348.4-147.1c-12.7-10.1-25.7-20.9-39.2-32.2c0,0,30.9-3.4,64.2,5.1c63.6,16.1,147.7,95.6,296.8,108.3
						c271.8,23.2,298.1,72.4,380.2-6.9c57.9-55.9,85.8-103,90.8-152.8C2770.5,1897.3,2781.4,1910.1,2782.2,1922.2"/>
				</g>
			</g>
		</g>
		<g>
			<path class="st2" d="M2134.1,1596.9c16.8,24,35.2,46.7,55.5,67.3c10,10.4,20.9,20,31.9,29.2c11.2,9,22.8,17.4,34.9,25
				c12.1,7.5,24.7,14.2,37.7,19.9c13,5.7,26.4,10.4,40,14.1c27.3,7.4,55.8,10.4,84.4,9.7c14.3-0.3,28.7-1.6,43.1-3.5
				c7.1-0.9,14.7-2.1,21.6-3.2c6.8-1.2,14.3-2.8,21.6-4.3c29.6-6.2,59.7-12.3,90.7-15.8c15.6-1.7,31.3-2.9,47.9-2.3
				c8.3,0.3,16.8,1.2,25.9,3.3c4.5,1.1,9.2,2.5,14.1,4.7c4.8,2.2,9.9,5.3,14.6,9.9c4.7,4.5,8.6,10.9,10.4,17.4
				c1,3.2,1.4,6.8,1.6,8.9c0.3,2.4,0.3,5,0.4,7.5c0,10.1-2.6,21.5-8.8,31c-6,9.6-14.6,16.6-23.3,21.3c-4.4,2.4-8.8,4.2-13.4,5.7
				c-2.3,0.7-4.5,1.4-6.9,2c-1.2,0.3-2.3,0.5-3.5,0.8c-1.3,0.2-2.2,0.4-4.2,0.7l4.5-35c24.5,9.8,47.6,20.5,70.7,33.2
				c11.5,6.4,22.8,13.2,33.9,21.2c5.5,4,11,8.3,16.3,13.2c5.3,4.9,10.6,10.3,15.3,17.2c2.4,3.5,4.6,7.4,6.4,12
				c0.9,2.3,1.7,4.8,2.2,7.4c0.6,2.4,0.9,6.1,0.9,7.3l0.4,10.4l-0.2,10.5c-0.7,14-3,27.9-6.8,41.4c-7.8,27-21.4,51.2-37.1,72.7
				c-15.8,21.5-33.6,40.8-52.2,58.8c-9.5,9.2-19.7,18.2-31.3,26.3c-11.6,8.1-25.4,14.8-39.9,18.5c-14.6,3.6-29.2,4.2-42.8,3.7
				c-13.7-0.6-26.7-2.2-39.4-4c-25.5-3.7-50.1-8-74.9-11.7c-49.5-7.6-99-13.2-148.8-17.3l-18.7-1.5c-6.4-0.6-12.9-1-19.3-1.7
				c-12.9-1.2-25.8-2.9-38.6-4.9c-25.7-4-51.3-9.9-76.3-17.7c-50.1-15.4-97.2-39.6-140.3-67.8c-21.6-14.1-42.1-29.7-61.6-46.3
				c-19.5-16.6-38-34.2-55.1-53.2c-3.4-3.8-3.1-9.6,0.7-13c3.1-2.8,7.7-3.1,11.1-0.9c21.4,13.6,42,27.8,62.6,41.9
				c20.6,14.1,41.2,27.7,62,40.9c41.6,26.3,85.6,47.6,132,61.7c23.2,7.1,46.9,12.2,71,16.1c12,1.9,24.2,3.5,36.4,4.7
				c6.1,0.7,12.2,1.1,18.3,1.6l19,1.5c50.7,4.1,101.3,10.5,151.5,18.7c25,4,50,8.6,74.4,12.2c24.4,3.6,48.2,6.3,68,1.4
				c9.9-2.6,19.2-6.8,28.3-13.1c9.1-6.2,17.9-13.9,26.5-22.2c17.6-17.1,34.1-35,48.1-54.1c14-19.1,25.3-39.6,31.5-61.2
				c3-10.8,4.9-21.9,5.4-33.1l0.2-8.4l-0.3-8.5c-0.1-1.9-0.1-1.4-0.2-2.1c-0.1-0.4-0.3-1-0.5-1.6c-0.5-1.3-1.4-2.9-2.5-4.6
				c-4.9-7.1-13.7-14.7-22.9-21.4c-9.4-6.8-19.6-13-30.2-18.9c-21.1-11.6-43.8-22.2-66.1-31.1c-9.3-3.7-13.9-14.3-10.2-23.7
				c2.4-6.1,7.7-10.1,13.7-11.2l0.9-0.2l1.4-0.2l2-0.4c1.3-0.3,2.7-0.7,4-1.1c2.6-0.9,5.1-1.9,7.4-3.2c4.6-2.4,7.8-5.5,9.9-8.7
				c2.1-3.2,3.1-7.1,3.2-12c0.1-2.2-0.4-6-0.5-6c-0.2-0.7-0.3-1-1.1-1.7c-1.3-1.5-5.8-3.8-11.5-5.1c-5.6-1.3-12.2-2.1-18.9-2.3
				c-13.6-0.5-27.9,0.5-42.3,2.1c-28.9,3.3-58,9.1-87.4,15.3c-7.4,1.5-14.7,3.1-22.8,4.6c-8,1.3-15.3,2.4-23.2,3.4
				c-15.4,2-31.1,3.4-47,3.8c-31.6,0.8-63.8-2.6-94.7-10.9c-15.4-4.2-30.6-9.4-45.2-15.9c-14.6-6.5-28.7-14-42.2-22.3
				c-13.5-8.5-26.3-17.8-38.6-27.7c-12.1-10.1-23.9-20.6-34.8-31.9c-22-22.3-41.7-46.6-59.5-72.1c-5.8-8.2-3.7-19.6,4.5-25.3
				C2117,1586.7,2128.3,1588.7,2134.1,1596.9L2134.1,1596.9z"/>
		</g>
		<g class="st10">
			<g>
				<g>
					<path class="st11" d="M1656.3,2581.9c0.2-1.3,0.4-2.6,0.7-3.9C1656.7,2579.2,1656.5,2580.6,1656.3,2581.9L1656.3,2581.9z"/>
				</g>
			</g>
		</g>
		<g>
			<path class="st2" d="M2183.8,2103.4c-9.8,0-18.3-7.3-19.5-17.3c-1.3-10.1-28.9-249.5,138.6-338.9c9.6-5.1,21.5-1.5,26.7,8.1
				c5.1,9.6,1.5,21.5-8.1,26.7c-143.5,76.6-118.3,297-118,299.3c1.3,10.8-6.4,20.6-17.2,22
				C2185.4,2103.3,2184.6,2103.4,2183.8,2103.4z"/>
		</g>
		<g>
			<path class="st2" d="M2571.8,1803.5c6.9,0.2,13.5,0.6,20.3,1c6.7,0.4,13.4,0.9,20.2,1.5c13.4,1.2,26.9,2.7,40.4,4.5l0.1,0
				c10,1.4,17,10.6,15.7,20.6c-1.4,10-10.6,17-20.6,15.7c-1.4-0.2-2.8-0.6-4.1-1c-12.1-4.6-24.4-8.9-36.9-13c-6.2-2-12.5-4-18.7-5.9
				c-6.2-1.9-12.6-3.7-18.8-5.3l-0.2-0.1c-4.9-1.3-7.8-6.3-6.5-11.2C2563.8,1806.1,2567.6,1803.4,2571.8,1803.5"/>
		</g>
		<g>
			<path class="st4" d="M1398.9,1550.5c155.6-121.1,221.6-119.3,314.1-167.9"/>
		</g>
		<g>
			<path class="st4" d="M1929.9,1344.6c0,0-136.1-4.6-217,38c-92.5,48.6-158.4,46.9-314,167.9c-235.5,183.2-313.2,347.7-327.3,344
				c-17.1-4.5-136.8-168.8-125.9-257.7c5.6-45.2,54.2-113.2,123-183.3c116-118.3,289.4-243.1,410.7-276.3
				c110.8-30.4,279.9,58.6,376.3,118.2C1900.8,1323.2,1929.9,1344.6,1929.9,1344.6"/>
		</g>
		<g class="st1">
			<g>
				<g>
					<path class="st2" d="M1929.9,1344.6c0,0-136.1-4.6-217,38c-92.5,48.6-158.4,46.9-314,167.9c-235.5,183.2-313.2,347.7-327.3,344
						c-17.1-4.5-136.8-168.8-125.9-257.7c5.6-45.2,54.2-113.2,123-183.3c38.1,49.5,111.2,114.9,214.9,79.4
						c178.5-61.2,390.7-278.3,572.1-237.5C1900.8,1323.2,1929.9,1344.6,1929.9,1344.6"/>
				</g>
			</g>
		</g>
		<g>
			<path class="st2" d="M1073.1,1914.5c-2,0-4.2-0.3-6.4-0.9c-27.6-7.2-84.9-105.4-85.5-106.4c-28.7-49.3-61.5-119.4-54.9-172.9
				c16.3-132.4,349.3-421.7,548.1-476.2c169.7-46.5,455.2,161.7,467.3,170.6c7,5.1,9.8,14.2,6.9,22.3c-2.8,8.2-10.7,13.5-19.3,13.2
				c-1.3,0-131.9-3.9-207.1,35.7c-29.9,15.7-56.5,26.1-84.7,37.1c-59.9,23.4-121.9,47.6-226.5,128.9
				c-165.6,128.9-251.8,247.9-293.3,305.1C1095.7,1901.6,1086.3,1914.5,1073.1,1914.5z M1529.6,1190.6c-15.9,0-30.9,1.7-44.9,5.6
				c-193.5,53-506.2,335.9-519.4,443c-8.4,67.9,74.3,193.1,105.8,228.9c4.3-5.6,9.5-12.9,14.7-20c42.5-58.7,131-180.8,301-313.1
				c109.1-84.9,176.7-111.3,236.3-134.6c27.1-10.6,52.7-20.6,80.6-35.3c49.2-25.9,115.9-35.3,164.3-38.6
				C1791.2,1276.9,1641.3,1190.6,1529.6,1190.6z"/>
		</g>
		<g>
			<path class="st4" d="M1183,1418.5l104.2,133.6c9.3,11.9,9.4,28.6,0.2,40.6c-33.7,43.9-116.9,141.4-183.6,130.3
				c-55.4-9.2-100.3-64.8-102.3-119.6c-2.1-61.3,87.1-148.5,133.2-189.4C1149.1,1401.3,1171.2,1403.4,1183,1418.5"/>
		</g>
		<g class="st1">
			<g>
				<g>
					<path class="st2" d="M1287.3,1592.7c-33.7,43.9-116.9,141.3-183.6,130.3c-25.3-4.1-48.5-18.1-66.3-37.2c4.5,1.3,9,2.3,13.6,3.1
						c79.5,13.2,178.6-102.9,218.7-155.2c0.5-0.6,1-1.3,1.4-2l16,20.5C1296.4,1564,1296.5,1580.7,1287.3,1592.7"/>
				</g>
			</g>
		</g>
		<g>
			<path class="st2" d="M1114.3,1743.6c-4.6,0-9.2-0.4-13.8-1.1c-63.2-10.5-116.4-72.5-118.7-138.4
				c-2.3-64.9,74.8-147.2,139.9-204.8c10.9-9.6,25.5-14.4,39.9-13.1c14.5,1.3,27.9,8.7,36.9,20.2c0,0,0,0,0,0l104.2,133.6
				c14.8,19,14.9,45.6,0.3,64.7C1262,1658,1185.3,1743.6,1114.3,1743.6z M1156.7,1425.4c-3.3,0-6.4,1.2-8.9,3.4
				c-80.6,71.4-127.9,136.4-126.6,173.9c1.6,47.2,40.9,93.4,85.8,100.9c46,7.6,115.3-58.5,164.7-122.9c3.7-4.9,3.7-11.6-0.1-16.5
				l-104.2-133.6c-2.3-3-5.7-4.8-9.4-5.2C1157.6,1425.4,1157.1,1425.4,1156.7,1425.4z"/>
		</g>
		<g>
			<path class="st2" d="M1673.3,1326.1c-13.2-14.3-27.1-28.4-41.2-42c-14.1-13.7-28.5-26.9-43.4-39.5
				c-14.8-12.6-30.1-24.5-45.9-34.7c-7.9-5-15.9-9.6-23.8-13.1c-7.8-3.5-15.9-5.6-20.8-5.3c-10,0.6-18.6-7.1-19.2-17.2
				s7.1-18.6,17.2-19.2c0.7,0,1.3,0,2,0l0.1,0c15,0.8,25.9,5.9,35.9,11c9.9,5.3,18.7,11.3,27.1,17.6c16.7,12.7,31.7,26.4,46.1,40.6
				c14.4,14.2,28.2,28.9,41.5,43.8c13.3,15,26.2,30.2,38.8,46c3.2,4.1,2.6,9.9-1.5,13.2c-3.9,3.1-9.4,2.6-12.7-0.9L1673.3,1326.1z"
				/>
		</g>
		<g class="st1">
			<g>
				<g>
					<path class="st2" d="M2631.1,1526.6c-4.9,6.1-9.9,12.1-15,18.1c-21.7,25.1-45.1,48-69.8,68.7c-21.2,17.9-43.5,34.2-66.5,48.8
						c-27.8,17.7-56.8,33-86.6,45.9c-10.9,4.7-21.8,9.1-32.9,13.1c-29.6,10.8-60,19.4-90.7,25.6c-36.6,7.4-73.7,11.6-110.9,12.4
						c-12.5,0.3-25.1,0.2-37.7-0.2c-29.4-1.1-58.7-4.3-87.7-9.6c-102.5-18.5-201.4-63.1-286.1-134.6
						c-60.2-50.8-107.9-110.6-142.8-175.8c6.8-2.8,12.7-5.2,17.4-7.1c120.1-49.8,308.5-85,386.2-62.4
						c59.3,17.3,241.3,75.2,196.6,290.8c-2.3,10.9-5.7,22.1-10.3,33.5c5.6,5.1,11.2,9.9,16.8,14.4
						C2359.3,1628.4,2500.5,1569.2,2631.1,1526.6"/>
				</g>
			</g>
		</g>
		<g>
			<path class="st4" d="M2822.9,1087.9c-4.3,104.7-35.1,209-93.1,302.5c-11.8,19.1-24.8,37.7-38.8,55.7c-6.8,8.8-14,17.5-21.4,26.1
				c-22.4,25.8-46.4,49.4-71.9,70.8c-21.9,18.5-44.8,35.2-68.5,50.3c-28.6,18.2-58.5,34-89.2,47.3c-11.2,4.8-22.5,9.3-33.9,13.5
				c-208.8,76.4-451.3,42.5-631.5-109.5c-265.5-223.9-295.3-619.4-66.6-883.3c44.1-50.8,94.5-93.1,149.2-126.5
				c6.4-4,12.9-7.8,19.4-11.4c17.5-9.9,35.3-18.9,53.5-27.1c42-18.8,85.8-32.9,130.4-42.3c44.6-9.4,90-14.1,135.4-13.9
				c14.4,0,28.9,0.6,43.3,1.6c21.7,1.6,43.2,4.1,64.7,7.9c107.1,18.6,210.6,64.7,299,139.3C2755.7,717.7,2830.4,903.2,2822.9,1087.9
				"/>
		</g>
		<g>
			<path class="st2" d="M2184.5,1695.3c-148.8,0-295.2-51.4-411.2-149.3c-128.3-108.2-206.2-259.6-219.2-426.3
				c-13.1-168,41-331.3,152.4-459.9c43.5-50.1,93.9-92.8,149.7-126.9c6.1-3.8,12.5-7.6,19.5-11.5c17.4-9.9,35.5-19,53.7-27.2
				c41.8-18.7,85.8-32.9,130.8-42.4c44.6-9.4,90.4-14.2,135.8-13.9c14.7,0,29.3,0.6,43.5,1.6c22.1,1.6,44,4.3,64.9,8
				c110.6,19.2,214.3,67.5,300,139.8c148.1,124.9,228.5,307.4,220.6,500.6c-4.4,107.1-36.7,212.1-93.4,303.5
				c-12,19.3-25.1,38.1-38.9,55.9c-6.3,8.1-13.3,16.7-21.4,26.2c-22.1,25.5-46.4,49.4-72.1,71c-21.4,18.1-44.6,35.1-68.7,50.5
				c-28.2,18-58.3,33.9-89.5,47.4c-11.2,4.8-22.6,9.3-34,13.6C2334.4,1682.4,2259.1,1695.3,2184.5,1695.3z M2193.6,442
				c-44.5,0-89.1,4.7-132.7,13.9c-44.8,9.4-88.5,23.6-130,42.1c-18.1,8.1-36,17.2-53.4,27c-7,3.9-13.3,7.6-19.3,11.4
				c-55.5,33.9-105.5,76.3-148.8,126.2c-110.7,127.7-164.5,290-151.4,457c12.9,165.6,90.3,316,217.8,423.6
				c173.1,146.1,414.4,187.9,629.6,109.2c11.4-4.2,22.7-8.7,33.8-13.5c30.9-13.4,60.9-29.2,88.9-47.1c24-15.3,47-32.2,68.3-50.2
				c25.5-21.4,49.6-45.2,71.6-70.6c8.1-9.4,15.1-17.9,21.3-26c13.7-17.6,26.8-36.3,38.7-55.5c56.4-90.8,88.5-195.1,92.8-301.6l2,0.1
				l-2-0.1c7.9-192-72-373.3-219.2-497.4c-85.1-71.8-188.2-119.8-298.1-138.9c-20.8-3.7-42.5-6.3-64.5-7.9
				c-14.1-1-28.6-1.5-43.2-1.6C2195.1,442,2194.4,442,2193.6,442z"/>
		</g>
		<g class="st1">
			<g>
				<g>
					<path class="st2" d="M1774.5,1544.5c180.2,152.1,422.7,186,631.5,109.5c11.4-4.2,22.7-8.7,33.9-13.5
						c30.7-13.3,60.6-29,89.2-47.3c23.7-15.1,46.7-31.9,68.5-50.3c25.5-21.4,49.5-44.9,71.9-70.8c7.3-8.6,14.5-17.3,21.4-26.1
						c14.1-18.1,26.9-36.7,38.8-55.7c58-93.5,88.8-197.8,93.1-302.5c2.4-57.5-3.3-115.2-16.7-171.1c-6.4,99.8-37,198.8-92.4,288.1
						c-11.8,19.1-24.7,37.7-38.8,55.7c-6.8,8.8-14,17.5-21.4,26.1c-22.4,25.8-46.4,49.4-71.8,70.8c-21.9,18.4-44.8,35.2-68.5,50.3
						c-28.6,18.2-58.5,34-89.2,47.3c-11.2,4.8-22.5,9.3-33.9,13.5c-208.8,76.4-451.3,42.6-631.5-109.5
						c-105.2-88.7-173.3-204.3-203.1-328C1543.2,1220.4,1617.8,1412.4,1774.5,1544.5"/>
				</g>
			</g>
		</g>
		<g>
			<path class="st2" d="M2184.5,1708.6c-151.9,0-301.4-52.4-419.8-152.4c-131.1-110.5-210.6-265.2-223.9-435.4
				c-13.4-171.6,41.8-338.4,155.6-469.6c44.4-51.2,95.8-94.7,152.8-129.6c6.2-3.9,12.7-7.7,19.9-11.7c17.7-10,36.2-19.4,54.7-27.7
				c42.6-19.1,87.5-33.6,133.5-43.3c45.5-9.6,92.1-14.4,138.6-14.2c15,0,29.9,0.6,44.4,1.6c22.6,1.6,44.9,4.4,66.3,8.1
				c112.9,19.6,218.8,68.9,306.2,142.7c151.3,127.6,233.4,313.9,225.3,511.3v0c-4.5,109.4-37.5,216.6-95.4,310
				c-12.3,19.7-25.6,38.9-39.7,57c-6.4,8.3-13.6,17-21.8,26.6c-22.6,26.1-47.4,50.5-73.6,72.5c-21.9,18.5-45.5,35.8-70.2,51.5
				c-28.8,18.4-59.5,34.6-91.3,48.4c-11.4,4.9-23.1,9.5-34.7,13.8C2337.5,1695.4,2260.7,1708.6,2184.5,1708.6z M2193.6,455.3
				c-43.6,0-87.3,4.6-130,13.6c-43.9,9.2-86.7,23.1-127.3,41.3c-17.7,7.9-35.2,16.8-52.2,26.4c-6.8,3.8-13,7.4-18.9,11.1
				c-54.4,33.3-103.4,74.8-145.8,123.6c-108.4,125-161,283.9-148.2,447.2c12.7,162,88.4,309.2,213.1,414.4
				c169.5,143,405.7,184,616.4,106.9c11.1-4.1,22.3-8.5,33.1-13.2c30.3-13.1,59.5-28.6,87-46.1c23.5-15,46-31.5,66.9-49.1
				c25-21,48.6-44.3,70.2-69.1c7.9-9.2,14.7-17.5,20.9-25.4c13.5-17.3,26.2-35.6,37.9-54.4c55.1-88.9,86.6-190.9,90.8-295.1
				c7.7-187.9-70.5-365.3-214.5-486.7c-83.3-70.3-184.2-117.3-291.8-135.9c-20.4-3.6-41.7-6.2-63.2-7.7c-13.8-1-28-1.5-42.3-1.6
				C2195.1,455.3,2194.4,455.3,2193.6,455.3z M2822.9,1087.9L2822.9,1087.9L2822.9,1087.9z"/>
		</g>
		<g>
			<path class="st2" d="M2184.5,1713c-153,0-303.4-52.8-422.7-153.4c-132-111.3-212-267-225.4-438.4
				c-13.5-172.8,42.1-340.7,156.7-472.9c44.7-51.5,96.5-95.4,153.8-130.4c6.2-3.9,12.8-7.8,20.1-11.8c17.8-10.1,36.4-19.5,55.1-27.8
				c42.9-19.2,88.1-33.9,134.4-43.6c45.8-9.7,92.7-14.5,139.5-14.3c15.1,0,30.1,0.6,44.7,1.6c22.7,1.6,45.2,4.4,66.7,8.2
				c113.6,19.7,220.3,69.4,308.3,143.7c152.3,128.4,235,316.1,226.9,514.9l0,0c-4.5,110.2-37.7,218.1-96.1,312.1
				c-12.4,19.9-25.8,39.2-40,57.4c-6.4,8.3-13.6,17.1-22,26.8c-22.8,26.3-47.7,50.9-74.1,73c-22,18.6-45.8,36-70.6,51.8
				c-29,18.5-60,34.9-91.9,48.7c-11.5,4.9-23.2,9.6-34.9,13.9C2338.5,1699.7,2261.2,1713,2184.5,1713z M2193.6,459.7
				c-43.3,0-86.7,4.5-129.1,13.5c-43.6,9.1-86.1,22.9-126.4,41c-17.5,7.9-35,16.7-51.9,26.2c-6.8,3.8-12.9,7.4-18.7,11
				c-54.1,33-102.7,74.3-144.8,122.7c-107.6,124.1-159.8,281.8-147.2,444c12.6,160.8,87.7,306.9,211.6,411.4
				c168.3,142,402.8,182.7,612,106.1c11-4.1,22.1-8.5,32.9-13.1c30-13,59.1-28.4,86.4-45.8c23.4-14.9,45.7-31.3,66.4-48.8
				c24.9-20.9,48.3-43.9,69.7-68.6c7.8-9.1,14.6-17.4,20.7-25.3c13.4-17.2,26-35.3,37.7-54c54.7-88.2,85.9-189.5,90.2-292.9
				c7.6-186.5-70-362.6-212.9-483.1c-82.7-69.8-182.9-116.5-289.7-135c-20.3-3.6-41.4-6.2-62.8-7.7c-13.7-1-27.8-1.5-42-1.5
				C2195.1,459.7,2194.4,459.7,2193.6,459.7z M2822.9,1087.9L2822.9,1087.9L2822.9,1087.9z"/>
		</g>
		<g>
			<path class="st2" d="M2795.5,1246.4c-219.4,393.6-755.1,453.3-976.5,68.9c-150.6-261.5-6.5-611,258.1-739.6
				c192.6-93.7,421.6-102.2,648.2,152.3c0,0,82.6,128.1,90.2,236.6c7.6,108.6-3.5,215.5-3.5,215.5L2795.5,1246.4z"/>
		</g>
		<g>
			<path class="st12" d="M1819,1315.3c221.4,384.4,757,324.7,976.5-68.9l3.4-13.4c-335.2,245.1-809,208.7-1040.2-175.8
				C1754.1,1145.5,1772.6,1234.6,1819,1315.3"/>
		</g>
		<g>
			<path class="st2" d="M2257.6,1659.2c-51.2,0-101.9-6.2-150.9-18.9c-153.9-39.8-279.4-137.4-362.8-282.3
				c-76.7-133.2-92.1-294.1-43.3-453c54.1-176.4,182-328.1,341.9-405.9c88.9-43.2,176.6-66.5,260.9-69.3l2-0.1l2,0.3
				c113.7,19.7,220.3,69.4,308.4,143.7c152.3,128.4,235,316.1,226.9,514.9l0,0c-4.5,110.2-37.7,218.1-96.1,312.1
				c-12.4,19.9-25.8,39.2-40,57.4c-6.4,8.3-13.6,17.1-22,26.8c-22.8,26.3-47.7,50.9-74.1,73l-2.5,1.8
				C2499.3,1625.2,2377.2,1659.2,2257.6,1659.2z M2302.6,469.3c-78.1,2.9-159.8,24.9-242.9,65.3c-150.3,73.1-270.5,215.9-321.5,382
				c-45.5,148.4-31.4,298.2,39.8,421.8c78.1,135.5,195.1,226.7,338.6,263.8c152.8,39.5,323.9,12,469.6-75.3
				c24.4-20.6,47.4-43.3,68.5-67.6c7.8-9.1,14.6-17.4,20.7-25.3c13.4-17.2,26-35.3,37.7-54c54.7-88.2,85.9-189.5,90.2-292.9
				c7.6-186.5-70-362.6-212.9-483.1C2508.1,534.6,2408.7,488,2302.6,469.3z M2822.9,1087.9L2822.9,1087.9L2822.9,1087.9z"/>
		</g>
		<g>
			<path class="st4" d="M1554,1414.9c48.1,113.8,156.7,180.5,242.5,149.2c85.8-31.4,116.3-149.1,68.2-262.8c-0.3-0.7-0.6-1.5-1-2.2
				c-48.6-112.4-156.4-178.2-241.6-147c-66.3,24.2-99.6,100-89.1,185.6C1536.2,1362.9,1543.1,1389,1554,1414.9"/>
		</g>
		<g class="st1">
			<g>
				<g>
					<path class="st2" d="M1554,1414.9c48.1,113.8,156.7,180.5,242.5,149.2c85.8-31.4,116.3-149.1,68.2-262.8
						c-0.3-0.7-0.6-1.5-1-2.2c-4.5,15.1-14.3,32-35.8,35.4c-37.7,5.9-131.2-44.3-131.2-44.3s-71.1,20.2-163.7,47.6
						C1536.2,1362.9,1543.1,1389,1554,1414.9"/>
				</g>
			</g>
		</g>
		<g>
			<path class="st2" d="M1752.7,1591.3c-83.8,0-173.6-66.8-216.8-168.8l0,0c-30-70.9-32.6-145.4-7-204.3
				c17.9-41.2,47.9-70.5,86.6-84.7c95.3-34.9,215.4,36.9,267.5,160c30,70.9,32.6,145.4,7,204.3c-17.9,41.2-47.9,70.5-86.6,84.7
				C1787,1588.5,1770,1591.3,1752.7,1591.3z M1667.2,1163.9c-13.1,0-25.9,2.1-38.2,6.6c-28.3,10.4-50.4,32.3-64,63.4
				c-21,48.3-18.3,113.1,7.1,173.2l0,0c44,104.1,141.7,166.1,217.6,138.3c28.3-10.4,50.4-32.3,64-63.4c21-48.3,18.3-113.1-7.1-173.2
				C1809.7,1221.6,1735.1,1163.9,1667.2,1163.9z"/>
		</g>
		<g>
			<path class="st4" d="M1578.8,1502.1c63.6,72.5,154.9,83.7,203.9,25c49-58.7,37.3-165.1-26.3-237.6
				c-63.6-72.5-154.9-83.7-203.9-25C1503.4,1323.2,1515.2,1429.6,1578.8,1502.1"/>
		</g>
		<g>
			<path class="st2" d="M1701.3,1566.8c-43.5,0-88.6-23-124-63.3l0,0c-64.1-73.1-76-180.9-26.4-240.3c20.6-24.7,48.9-38,81.6-38.4
				c0.5,0,1,0,1.5,0c43.5,0,88.6,23,124,63.3c64.1,73.1,76,180.9,26.4,240.3c-20.6,24.7-48.9,38-81.6,38.4
				C1702.2,1566.8,1701.7,1566.8,1701.3,1566.8z M1580.4,1500.7c34.6,39.4,78.6,61.9,120.9,61.9c0.5,0,1,0,1.4,0
				c31.5-0.4,58.6-13.1,78.5-36.9c48.3-57.9,36.5-163.3-26.3-234.9c-34.6-39.4-78.5-61.9-120.9-61.9c-0.5,0-1,0-1.4,0
				c-31.5,0.4-58.6,13.1-78.5,36.9C1505.7,1323.7,1517.5,1429.1,1580.4,1500.7L1580.4,1500.7z"/>
		</g>
		<g class="st1">
			<g>
				<g>
					<path class="st2" d="M1814.1,1416c-5-33.3-19.4-65.3-39.6-92.5c5,76.9-45.4,130.3-118,121.3c-46.9-5.8-92.3-36.3-123.5-78.4
						c0.3,4.9,0.9,9.8,1.6,14.9c12.9,84.8,85.9,161.3,163.1,170.8C1774.9,1561.7,1827,1500.7,1814.1,1416"/>
				</g>
			</g>
		</g>
		<g>
			<path class="st2" d="M1705.5,1584.5c-67,0-139-56.2-176.2-142.9c-25.8-60.2-28.7-124.7-7.9-172.3c13.6-31.2,36.2-53.3,65.4-63.6
				c75.8-27.1,169.8,32.9,214.2,136.5c25.8,60.2,28.7,124.7,7.9,172.3c-13.6,31.2-36.2,53.3-65.4,63.6
				C1731.2,1582.4,1718.5,1584.5,1705.5,1584.5z M1624,1238.6c-8.3,0-16.4,1.3-24,4c-23.5,8.4-36.1,27.6-42.5,42.3
				c-16.5,37.9-13.5,90.6,8,141l0,0c30,70.2,89.9,118.9,140.7,118.9c8.3,0,16.4-1.3,24-4c23.5-8.4,36.1-27.6,42.5-42.3
				c16.5-37.9,13.5-90.6-8-141.1C1734.7,1287.3,1674.8,1238.6,1624,1238.6z"/>
		</g>
		<g class="st7">
			<g>
				<g>
					<path class="st4" d="M1994.8,761.1c0,0,254.6-104.6,459.4-30.7c0.2,0.1,0.4,0.2,0.6,0.2c43.1,15.6,81,42.4,110.1,77.5
						c38.4,46.3,58,83.8,73.9,117.5c48.4,102.5,51.5,159.6,51.5,159.6c33.7-81.8,38.1-158.8-1.4-244.6c-3.9-8.4-8.3-17-13-25.7
						c-1.1-2-2.2-3.9-3.4-5.9c0,0,0-0.1-0.1-0.1c-10.9-16.8-26-38.4-45.1-61.4c-57.7-69.2-151.6-150.7-274.4-151.6
						C2123.3,594.3,1981.1,754.4,1994.8,761.1"/>
				</g>
			</g>
		</g>
		<g class="st7">
			<g>
				<g>
					<path class="st4" d="M2013.9,1075.6c9.4,53-20.4,102.8-66.5,111.1c-46.1,8.3-91.2-27.9-100.6-81c-9.4-53,20.4-102.8,66.5-111.1
						C1959.5,986.3,2004.5,1022.6,2013.9,1075.6"/>
				</g>
			</g>
		</g>
		<g class="st7">
			<g>
				<g>
					<path class="st4" d="M1996.2,1261.8c2,22.2-12,41.6-31.3,43.5c-19.3,1.8-36.5-14.6-38.5-36.8c-2-22.2,12-41.6,31.3-43.5
						C1977,1223.2,1994.2,1239.6,1996.2,1261.8"/>
				</g>
			</g>
		</g>
		<g>
			<path class="st4" d="M1861.8,2040.2c0,0-3.2,54.9-66.5,81.2c-54.5,22.7-161.1-53.8-261.7-155.1
				c-126.5-127.6-243.5-294.5-235.4-353.3c10.5-76,97.5-70.2,97.5-70.2c109.8,165,218.9,284.4,303.9,364.9
				C1796.2,1999.2,1861.8,2040.2,1861.8,2040.2"/>
		</g>
		<g class="st1">
			<g>
				<g>
					<path class="st2" d="M1861.8,2040.2c0,0-3.2,54.9-66.5,81.2c-54.5,22.7-161.1-53.8-261.7-155.1c29.5,6.3,75,13.3,108.1,5.8
						c37.5-8.5,60.4-33.7,57.9-64.3C1796.2,1999.2,1861.8,2040.2,1861.8,2040.2"/>
				</g>
			</g>
		</g>
		<g>
			<path class="st2" d="M1773.8,2145.1c-38.1,0-88-23.6-148.9-70.6c-155.1-119.7-358.5-375.9-346.2-464.2
				c10.3-74.5,81.9-89.5,118.3-87.1l9.7,0.6l5.4,8.1c229,344.2,457.9,490.2,460.2,491.6l9.9,6.2l-0.7,11.6
				c-0.2,2.7-4.7,67.5-78.7,98.3C1794.1,2143.3,1784.4,2145.1,1773.8,2145.1z M1385.1,1562.5c-19.4,0.9-61.1,8.2-67.4,53.2
				c-8.3,59.9,171.1,304,331.3,427.6c89.4,69,126.8,64.9,138.7,60c35.5-14.8,47.9-39.7,52.2-53.8
				C1790.2,2015.6,1590.6,1868.5,1385.1,1562.5z"/>
		</g>
		<g>
			<path class="st4" d="M1475.3,2215.6c-31.9,56.3-148.5,105.5-181.3,214.3c-25.5,84.3,42.4,272.4,86.7,314.8
				c81.7,78.3,204,40.7,240.2-27.9c37.3-70.6,26.2-180,23.5-202.6c155.2-82.7,209.2-253.8,102.1-390.9
				c-131.1-167.8-294.7-192.1-294.7-192.1L1475.3,2215.6z"/>
		</g>
		<g>
			<path class="st2" d="M1483.2,2220.1c-5.5,11.5-13.1,21.5-20.9,30.7c-7.8,9.2-16.3,17.5-24.7,25.6c-16.9,16.1-33.9,31.3-49.8,47.1
				c-16,15.7-30.4,32.1-43.3,49.2c-12.9,17.1-23.6,35.3-30.6,55.1l-2.5,7.4l-1.8,6.9l-1.3,7.3l-0.9,7.6c-0.9,10.2-0.9,20.9-0.3,31.7
				c1.2,21.6,4.9,43.5,9.7,65.2c9.9,43.3,24.6,86.3,43.6,126.1c4.8,9.9,10,19.6,15.5,28.7c5.6,9,11.6,17.6,17.9,23.6
				c14.9,14.1,32.5,24.9,51.7,31.3c38.4,12.9,82.9,7.1,117.9-13.7c17.4-10.4,32.3-24.7,41.2-41.3c9.5-18,15.5-38.7,19.4-60
				c7.4-42.7,7.2-88.2,2.2-132v0l-1.6-11.9l11.1-6.3c28.4-16.1,55-35.3,77.1-58.7c22.1-23.3,40.7-49.9,52.7-79.3
				c24.7-58.5,22-126.4-7.6-183c-7.2-14.2-15.6-27.9-25.4-40.7c-10.1-13.1-20.6-26.1-31.9-38.3c-11.2-12.3-22.9-24.1-35.1-35.4
				c-6-5.7-12.4-11.1-18.7-16.6c-6.4-5.3-12.9-10.6-19.5-15.6c-26.3-20.4-54.5-38.5-84.2-53.8c-14.8-7.7-30.1-14.6-45.6-21
				c-7.8-3.1-15.6-6-23.6-8.6c-7.9-2.5-16.1-5.2-23.7-7l-0.4-0.1c-4.9-1.2-7.9-6.1-6.7-10.9c1.1-4.5,5.4-7.4,9.9-6.9
				c18.4,2,35.2,6.3,52.3,11.1c17,4.9,33.6,11,49.9,17.9c32.5,13.9,63.5,31.5,92.4,52c14.5,10.2,28.4,21.3,41.8,32.9
				c6.8,5.7,13.2,11.9,19.7,17.9c6.2,6.3,12.7,12.4,18.7,19c12.3,12.8,23.7,26.3,34.8,40.3c11.3,14.3,21.3,29.8,29.9,46.2
				c8.5,16.4,15.5,33.6,20.5,51.6c4.9,17.9,8,36.5,8.9,55.1c1.7,37.3-5.4,74.9-19.8,109.1c-14.2,34.3-35.6,65.2-61.4,91.1
				c-25.7,26.1-55.7,47.3-87.7,63.9l9.5-18.2v0c2.8,23.8,4,47.4,3.8,71.2c-0.3,23.8-2,47.7-6.3,71.6c-4.4,23.9-11.1,47.9-23,70.6
				c-12.9,24-32.7,42.3-54.7,55.5c-22.1,13.1-46.7,21.3-72,24.4c-25.3,3-51.5,0.8-75.9-7.4c-24.5-8.1-46.9-21.9-65.4-39.4
				c-10.3-9.9-17.3-20.5-23.9-30.9c-6.4-10.5-12.1-21.1-17.3-31.9c-10.4-21.5-19.2-43.5-26.9-65.8c-7.7-22.3-14.2-45-19.5-68.2
				c-5.2-23.2-9.2-46.7-10.6-71.1c-0.7-12.2-0.7-24.5,0.4-37.2l1.1-9.5l1.8-9.7l2.5-9.7l2.9-8.9c8.3-23.7,20.1-46,35-65.6
				c14.7-19.7,32.3-36.5,50.3-51.8c18-15.3,36.7-29.1,54.7-42.9c17.8-13.8,35.8-27.5,47.8-44.3l0.2-0.3c2.9-4.1,8.6-5,12.7-2.1
				C1484,2211.4,1485.1,2216.2,1483.2,2220.1"/>
		</g>
		<g class="st1">
			<g>
				<g>
					<path class="st2" d="M1648.5,2511c-0.9,0.5-6.7,14.2-7.6,14.7l1.2,1.4c0,0,24.6,107.3-17.1,186.4
						c-36.2,68.5-158.4,106-240.1,27.8c-6.6-6.3-13.8-15.9-21.1-28c37.9,23.8,130,50,180.8-31.1c61.1-97.6-76.7-142.2-76.7-142.2
						C1512.2,2551.1,1582.2,2538.6,1648.5,2511"/>
				</g>
			</g>
		</g>
		<g>
			<path class="st2" d="M1652.7,2530.5c-4.3,2-7.9,3.5-11.8,5c-3.8,1.5-7.6,2.9-11.5,4.3c-7.7,2.8-15.4,5.1-23.2,7.3
				c-15.6,4.4-31.5,7.5-47.5,9.7c-16,2.3-32.3,3-48.5,2.4c-16.2-0.3-32.4-3.2-48.1-6.9c-4.9-1.1-7.9-6-6.8-10.9c1-4.4,5.1-7.3,9.4-7
				l0.6,0l11.1,0.7l5.5,0.3l5.6,0l11.1-0.1l11.1-0.7c14.7-1.2,29.4-3.3,43.8-6.7c14.4-3.3,28.7-7.5,42.6-12.5
				c6.9-2.6,13.8-5.3,20.6-8.2c3.4-1.4,6.7-2.9,10-4.5c3.2-1.5,6.7-3.2,9.3-4.7l0.3-0.1c8.8-4.8,19.9-1.5,24.7,7.3
				c4.8,8.8,1.5,19.9-7.3,24.7C1653.4,2530.1,1653,2530.3,1652.7,2530.5"/>
		</g>
		<g>
			<path class="st2" d="M1621.9,2364.7c-90.5,0-164.8-46.1-205.6-78.2c-8.6-6.7-10-19.1-3.3-27.7c6.7-8.5,19.1-10,27.7-3.3
				c45.4,35.7,137.3,91.1,243.4,61c84-23.9,99.9-64.1,100-64.5c3.3-10.4,14.3-15.9,24.7-12.6c10.4,3.3,16,14.6,12.7,25
				c-1.9,6.1-22,60.2-126.6,90C1669.6,2361.6,1645.2,2364.7,1621.9,2364.7z"/>
		</g>
	</g>
</g>
</svg>
