<svg
  id="Layer_1"
  data-name="Layer 1"
  xmlns="http://www.w3.org/2000/svg"
  viewBox="0 0 187.59 72.5"
  width="500"
>
  <defs>
    <style>.cls-1{fill:#1d1d1b;}</style>
  </defs>
  <path class="cls-1" d="M235.52,129.65V178H211.36V130.66H200.68l0,23.15V178H184.17V129.65a24.17,24.17,0,0,1,24.17-24.17h3A24.16,24.16,0,0,1,235.52,129.65ZM211.36,107.5h-3l0,21.14h3Z" transform="translate(-47.94 -105.48)"/>
  <path class="cls-1" d="M75.17,129.65a24.19,24.19,0,0,1,24.2,24.17V178a24.18,24.18,0,0,1-24.2-24.16V130.66h-3V178H47.94v-72.5H87.29a12.09,12.09,0,0,1,0,24.17Zm0-1V107.5h-3v21.14Z" transform="translate(-47.94 -105.48)"/>
  <path class="cls-1" d="M153.88,117.57V178H129.71V130.66h-3V178H102.53V117.57a12.08,12.08,0,1,1,24.16,0v11.07h3V117.57a12.09,12.09,0,1,1,24.17,0Z" transform="translate(-47.94 -105.48)"/>
  <path class="cls-1" d="M181,117.57V178H156.85V130.66h-3V178H129.66V117.57a12.09,12.09,0,1,1,24.17,0v11.07h3V117.57a12.08,12.08,0,1,1,24.16,0Z" transform="translate(-47.94 -105.48)"/>
</svg>
