<svg
  id="Layer_1"
  data-name="Layer 1"
  xmlns="http://www.w3.org/2000/svg"
  viewBox="0 0 133.08 151.65"
  width="40"
  height="40"
>
  <defs>
    <style>.cls-1{fill:#1d1d1b;}</style>
  </defs>
  <path
    class="cls-1"
    d="M73,185.21V136.88H97.16v24.17l0,23.15h10.66l0-23.15V136.88h16.47v48.33a24.17,24.17,0,0,1-24.17,24.17h-3A24.17,24.17,0,0,1,73,185.21Zm24.16,22.15h3l0-21.14h-3Z"
    transform="translate(-72.96 -57.73)"
  />
  <path
    class="cls-1"
    d="M100.19,81.9a24.19,24.19,0,0,1,24.2,24.16v24.17a24.18,24.18,0,0,1-24.2-24.17V82.91h-3v47.32H73V57.73h39.35a12.09,12.09,0,0,1,0,24.17Zm0-1V59.75h-3V80.89Z"
    transform="translate(-72.96 -57.73)"
  />
  <path
    class="cls-1"
    d="M178.9,69.81v60.42H154.73V82.9h-3v47.33H127.55V69.81a12.08,12.08,0,0,1,24.16,0V80.89h3V69.81a12.09,12.09,0,0,1,24.17,0Z"
    transform="translate(-72.96 -57.73)"
  />
  <path
    class="cls-1"
    d="M206,69.82v60.41H181.87V82.9h-3v47.33H154.68V69.82a12.09,12.09,0,1,1,24.17,0V80.89h3V69.82a12.08,12.08,0,1,1,24.16,0Z"
    transform="translate(-72.96 -57.73)"
  />
  <path
    class="cls-1"
    d="M154.68,197.29V136.88h24.17V184.2h3V136.88H206v60.41a12.08,12.08,0,1,1-24.16,0V186.22h-3v11.07a12.09,12.09,0,1,1-24.17,0Z"
    transform="translate(-72.96 -57.73)"
  />
  <path
    class="cls-1"
    d="M127.55,197.29V136.88h24.16V184.2h3V136.88H178.9v60.41a12.09,12.09,0,1,1-24.17,0V186.22h-3v11.07a12.08,12.08,0,1,1-24.16,0Z"
    transform="translate(-72.96 -57.73)"
  />
</svg>
