<svg
  id="Layer_1"
  data-name="Layer 1"
  xmlns="http://www.w3.org/2000/svg"
  width="40"
  height="40"
  viewBox="0 0 105.94 152.39"
>
  <defs>
    <style>.cls-1{fill:#1d1d1b;}</style>
  </defs>
  <path
    class="cls-1"
    d="M116,86.17a24.18,24.18,0,0,1,24.2,24.17v24.17A24.19,24.19,0,0,1,116,110.34V87.18h-3v47.33H88.76V62h39.35a12.08,12.08,0,0,1,0,24.16Zm0-1V64h-3V85.17Z"
    transform="translate(-88.76 -62.01)"
  />
  <path
    class="cls-1"
    d="M194.7,74.09v60.42H170.54V87.18h-3v47.33H143.35V74.09a12.09,12.09,0,0,1,24.17,0V85.17h3V74.09a12.08,12.08,0,1,1,24.16,0Z"
    transform="translate(-88.76 -62.01)"
  />
  <path
    class="cls-1"
    d="M88.81,190.23V141.9H113v47.32h10.67l0-23.16V141.9h16.47v48.33A24.17,24.17,0,0,1,116,214.39h-3A24.17,24.17,0,0,1,88.81,190.23ZM113,212.38h3l0-21.15h-3Z"
    transform="translate(-88.76 -62.01)"
  />
  <path
    class="cls-1"
    d="M143.3,202.31V141.9h24.16v47.32h3V141.9h24.17v60.41a12.09,12.09,0,0,1-24.17,0V191.23h-3v11.08a12.08,12.08,0,0,1-24.16,0Z"
    transform="translate(-88.76 -62.01)"
  />
</svg>