<svg xmlns="http://www.w3.org/2000/svg" viewBox="0 0 257.22 126.01"><defs><style>.cls-1{fill:#fff;}</style></defs><g id="Layer_2" data-name="Layer 2"><g id="Layer_1-2" data-name="Layer 1"><path class="cls-1" d="M14.49,22.54V11.27A1.61,1.61,0,0,1,16.1,9.66H27.37A1.61,1.61,0,0,1,29,11.27V22.54a1.61,1.61,0,0,1-1.61,1.61H16.1a1.61,1.61,0,0,1-1.61-1.61M14.49,0H1.61A1.61,1.61,0,0,0,0,1.61V80.5a1.61,1.61,0,0,0,1.61,1.61H12.88a1.61,1.61,0,0,0,1.61-1.61V35.42a1.61,1.61,0,0,1,1.61-1.61H41.86a1.61,1.61,0,0,0,1.61-1.61V1.61A1.61,1.61,0,0,0,41.86,0H14.49Z"/><path class="cls-1" d="M172.28,0H161a1.62,1.62,0,0,0-1.61,1.61V80.5A1.62,1.62,0,0,0,161,82.11h40.26a1.61,1.61,0,0,0,1.61-1.61V74.06a1.61,1.61,0,0,0-1.61-1.61H175.49a1.62,1.62,0,0,1-1.61-1.61V1.61A1.61,1.61,0,0,0,172.28,0"/><path class="cls-1" d="M80.5,33.81H69.23a1.61,1.61,0,0,1-1.61-1.61V11.27a1.61,1.61,0,0,1,1.61-1.61H80.5a1.61,1.61,0,0,1,1.61,1.61V32.2a1.61,1.61,0,0,1-1.61,1.61M54.74,0a1.61,1.61,0,0,0-1.61,1.61V80.5a1.61,1.61,0,0,0,1.61,1.61H66a1.61,1.61,0,0,0,1.61-1.61V45.08a1.61,1.61,0,0,1,1.61-1.61H80.5a1.61,1.61,0,0,1,1.61,1.61V80.5a1.61,1.61,0,0,0,1.61,1.61H95A1.61,1.61,0,0,0,96.6,80.5V1.61A1.61,1.61,0,0,0,95,0H54.74Z"/><path class="cls-1" d="M239.9,72.45H228.63A1.61,1.61,0,0,1,227,70.84V11.27a1.61,1.61,0,0,1,1.61-1.61H239.9a1.61,1.61,0,0,1,1.61,1.61V70.84a1.61,1.61,0,0,1-1.61,1.61M227,0H214.13a1.61,1.61,0,0,0-1.6,1.61V80.5a1.61,1.61,0,0,0,1.6,1.61h40.26A1.61,1.61,0,0,0,256,80.5V1.61A1.61,1.61,0,0,0,254.39,0H227Z"/><path class="cls-1" d="M120.75,22.54V11.27a1.61,1.61,0,0,1,1.61-1.61h11.28a1.61,1.61,0,0,1,1.6,1.61V22.54a1.61,1.61,0,0,1-1.6,1.61H122.36a1.61,1.61,0,0,1-1.61-1.61m14.49,32.2v16.1a1.61,1.61,0,0,1-1.6,1.61H122.36a1.61,1.61,0,0,1-1.61-1.61V54.74a1.61,1.61,0,0,1,1.61-1.61h11.28a1.61,1.61,0,0,1,1.6,1.61M120.75,0H107.87a1.61,1.61,0,0,0-1.61,1.61V80.5a1.61,1.61,0,0,0,1.61,1.61h40.25a1.61,1.61,0,0,0,1.61-1.61V45.08a1.61,1.61,0,0,0-1.61-1.61H122.36a1.61,1.61,0,0,1-1.61-1.61V35.42a1.61,1.61,0,0,1,1.61-1.61h25.76a1.61,1.61,0,0,0,1.61-1.61V1.61A1.61,1.61,0,0,0,148.12,0H120.75Z"/><path class="cls-1" d="M11.32,102.79a1.09,1.09,0,0,0-1.08,1.09V117.6a1.09,1.09,0,0,0,1.08,1.09h2.11c2.54,0,4.28-2,4.25-7.71,0-6.29-1.64-8.19-4.21-8.19ZM1.08,125.4A1.09,1.09,0,0,1,0,124.31v-27a1.08,1.08,0,0,1,1.08-1.08H14.49c8.61,0,13.88,4.29,13.88,14.91,0,9.82-5.23,14.22-13.66,14.22Z"/><path class="cls-1" d="M36.18,124.32v-27a1.08,1.08,0,0,1,1.08-1.08h8.08a1.08,1.08,0,0,1,1.08,1.08v27a1.08,1.08,0,0,1-1.08,1.08H37.26a1.08,1.08,0,0,1-1.08-1.08"/><path class="cls-1" d="M54.46,117.93a8.22,8.22,0,0,1-.06-1.5,1.27,1.27,0,0,1,1.18-1.15l6.22-.39a.92.92,0,0,1,1.05.88,5.66,5.66,0,0,0,.11,1c.49,2.5,2.16,3.52,5.19,3.52,2.13,0,3.41-1.1,3.41-2.58,0-1.86-1-2.69-5.31-3.9l-2.46-.69C58,111.78,55,108.94,55.1,104c.16-5.46,4.86-8.27,12.71-8.27,8.53,0,11.68,3.11,12.48,7.17a5,5,0,0,1,.07.81c0,.46-.52.86-1.11.91l-6.3.54a1,1,0,0,1-1.09-.91,3.91,3.91,0,0,0-.22-1c-.53-1.37-1.36-2.12-3.68-2.12-2,0-2.84.94-2.84,2,0,1.94,1.17,2.62,3.79,3.27l2.81.68c7.36,1.56,10.09,4.44,10.09,9.86,0,5.24-3.61,9-13.09,9s-13.5-3-14.26-8.08"/><path class="cls-1" d="M88.67,111.52c0-10.89,5.19-15.82,14.64-15.82,9,0,12.06,4.55,12.06,8.84,0,.42,0,.94-.07,1.43a1.42,1.42,0,0,1-1.24,1.18l-6.45.62a.82.82,0,0,1-.93-1c0-.34,0-.72,0-1.09,0-2.27-.72-3.94-3.38-3.94s-4,2.73-4,9.22,1.44,8.68,4.06,8.72c2.85,0,3.87-2.12,3.87-5.12,0-.5,0-1-.05-1.43a.89.89,0,0,1,.94-1l6.37.31a1.45,1.45,0,0,1,1.3,1.11,14,14,0,0,1,.2,2.51c0,6.3-4.93,9.94-12.82,9.94-9.41,0-14.56-4-14.56-14.49"/><path class="cls-1" d="M137.44,101.77c-2.62,0-3.95,2.58-3.95,9.07s1.21,8.87,3.95,8.87,3.94-2.5,3.91-8.87-1.37-9.07-3.91-9.07m0,24.2c-8.57,0-14.6-4.21-14.6-14.87,0-11.23,6.14-15.36,14.6-15.36s14.68,4,14.68,15.36c0,10.74-6.22,14.87-14.68,14.87"/><path class="cls-1" d="M171.21,113a1.07,1.07,0,0,0-1.08,1.07v4a1.08,1.08,0,0,0,1.08,1.08h3.21c1.78,0,3.1-.53,3.1-3a2.83,2.83,0,0,0-3.1-3.18Zm0-10.59a1.08,1.08,0,0,0-1.08,1.09v3.22a1.08,1.08,0,0,0,1.08,1.08h2.71c1.59,0,2.81-.61,2.81-2.73s-1.22-2.66-2.81-2.66Zm-10.16,23a1.09,1.09,0,0,1-1.09-1.09v-27a1.08,1.08,0,0,1,1.09-1.08h15.68c5.73,0,9.63,2.66,9.63,7.66a6.18,6.18,0,0,1-4.59,6.23c-.57.18-.57.23,0,.35,2,.41,5.9,1.92,5.9,7,0,5.73-4.63,7.89-10.62,7.89Z"/><path class="cls-1" d="M207.09,106.77,205.25,115a.83.83,0,0,0,.85,1h2.46a.83.83,0,0,0,.85-1l-1.85-8.21c-.12-.58-.34-.58-.47,0m4.6,17.58-.48-1.85a1.48,1.48,0,0,0-1.36-1h-5.08a1.48,1.48,0,0,0-1.35,1l-.48,1.85a1.48,1.48,0,0,1-1.36,1.05h-7.43a.74.74,0,0,1-.75-1L202,97.3a1.57,1.57,0,0,1,1.41-1h8.91a1.56,1.56,0,0,1,1.41,1l8.49,27.06a.75.75,0,0,1-.76,1H213a1.47,1.47,0,0,1-1.35-1.05"/><path class="cls-1" d="M240.91,102.23a1.08,1.08,0,0,0-1.08,1.08v4.77a1.09,1.09,0,0,0,1.08,1.09h2.22c2.32,0,3.64-.87,3.64-3.46s-1.14-3.48-3.75-3.48Zm5.15,22.19a20.77,20.77,0,0,1-.92-3.8c-.15-1.06-.3-2-.53-3.26-.3-1.67-.65-2.24-2.05-2.24h-1.65a1.09,1.09,0,0,0-1.08,1.09v8.11a1.08,1.08,0,0,1-1.08,1.08h-8.07a1.09,1.09,0,0,1-1.09-1.08v-27a1.08,1.08,0,0,1,1.09-1.08h15.94c6.33,0,10.16,3.15,10.16,8.34,0,4.12-1.85,6.43-5.71,7.14-.59.11-.58.16,0,.3,3.11.77,4.05,4,4.5,7.36a15.06,15.06,0,0,0,1.49,5.15c.3.52.19.84-.41.84h-9.06a1.76,1.76,0,0,1-1.53-1"/></g></g></svg>